<svg width="24" height="24" viewBox="0 0 24 24" fill="none" xmlns="http://www.w3.org/2000/svg">
<g clip-path="url(#clip0_340_3658)">
<path fill-rule="evenodd" clip-rule="evenodd" d="M20.3516 15.5114C20.1543 20.2228 16.274 23.9822 11.5141 23.9822C6.62794 23.9822 2.667 19.8881 2.667 15.1352C2.667 14.4999 2.65561 13.2302 3.60817 11.0881C4.17825 9.80615 4.5358 9.00079 4.73759 8.2646C4.84846 7.85999 5.06408 7.21716 5.67876 8.2646C6.04121 8.8822 6.05523 9.77048 6.05523 9.77048C6.05523 9.77048 7.40375 8.73566 8.31406 6.75872C9.64855 3.86055 8.5838 2.12813 8.21994 0.923423C8.09401 0.50667 8.01495 -0.242318 8.87876 0.0763639C9.75895 0.401164 12.0859 2.03006 13.3023 3.74695C15.0383 6.19731 15.6552 8.54695 15.6552 8.54695C15.6552 8.54695 16.2111 7.85707 16.4082 7.13519C16.6308 6.32003 16.6341 5.51269 17.3493 6.38234C18.0294 7.20935 19.0396 8.76352 19.6082 10.2411C20.6406 12.9243 20.3516 15.5114 20.3516 15.5114Z" fill="url(#paint0_linear_340_3658)"/>
<path fill-rule="evenodd" clip-rule="evenodd" d="M11.5141 23.9825C8.1354 23.9825 5.39648 21.2436 5.39648 17.8648C5.39648 15.8261 6.21804 14.5884 7.92787 12.9099C9.02265 11.8352 10.0473 10.5152 10.4828 9.61636C10.5685 9.43942 10.7636 8.51735 11.5159 9.59697C11.9106 10.1632 12.5292 11.1701 12.9259 12.0295C13.6098 13.5112 13.773 14.9472 13.773 14.9472C13.773 14.9472 14.4432 14.5523 14.9024 13.5354C15.0504 13.2077 15.3497 11.967 16.1864 13.2075C16.8003 14.1178 17.6437 15.7545 17.6318 17.8648C17.6318 21.2436 14.8928 23.9825 11.5141 23.9825Z" fill="#FC9502"/>
<path fill-rule="evenodd" clip-rule="evenodd" d="M11.6082 17.2998C12.4788 17.2998 12.4788 18.9119 13.5847 21.0645C14.321 22.4978 13.2196 23.9822 11.6082 23.9822C9.9968 23.9822 9.16113 22.6759 9.16113 21.0645C9.16113 19.4532 10.7376 17.2998 11.6082 17.2998Z" fill="#FCE202"/>
</g>
<defs>
<linearGradient id="paint0_linear_340_3658" x1="11.5273" y1="23.9999" x2="11.5273" y2="0.0176344" gradientUnits="userSpaceOnUse">
<stop stop-color="#FF4C0D"/>
<stop offset="1" stop-color="#FC9502"/>
</linearGradient>
<clipPath id="clip0_340_3658">
<rect width="24" height="24" fill="white"/>
</clipPath>
</defs>
</svg>
