<svg width="18" height="18" viewBox="0 0 18 18" fill="none" xmlns="http://www.w3.org/2000/svg">
<g clip-path="url(#clip0_340_3644)">
<path d="M17.4726 1.29913H15.1628C15.1711 1.04329 15.1758 0.785916 15.1758 0.527343C15.1758 0.236074 14.9396 0 14.6485 0H3.35151C3.06038 0 2.82417 0.236074 2.82417 0.527343C2.82417 0.785916 2.82884 1.04329 2.83721 1.29913H0.527343C0.236074 1.29913 0 1.5352 0 1.82647C0 4.18935 0.617553 6.4186 1.73882 8.10378C2.84723 9.76973 4.32365 10.7252 5.91861 10.8182C6.28019 11.2117 6.66238 11.5325 7.06049 11.7772V14.121H6.17582C5.10629 14.121 4.23632 14.9911 4.23632 16.0605V16.9451H4.19884C3.90754 16.9451 3.6715 17.1814 3.6715 17.4725C3.6715 17.7638 3.90754 17.9998 4.19884 17.9998H13.8011C14.0924 17.9998 14.3285 17.7638 14.3285 17.4725C14.3285 17.1814 14.0924 16.9451 13.8011 16.9451H13.7636V16.0605C13.7636 14.9911 12.8937 14.121 11.8241 14.121H10.9395V11.7772C11.3376 11.5326 11.7199 11.2117 12.0815 10.8182C13.6763 10.7252 15.1527 9.76973 16.2612 8.10378C17.3825 6.4186 18 4.18935 18 1.82647C18 1.5352 17.7639 1.29913 17.4726 1.29913ZM2.61692 7.51959C1.69203 6.12966 1.14862 4.31173 1.06583 2.35381H2.89613C3.08633 4.76064 3.65129 6.98536 4.53434 8.75129C4.67496 9.03254 4.82202 9.29825 4.9746 9.54849C4.09745 9.21725 3.2857 8.52481 2.61692 7.51959ZM12.709 16.0605V16.9453H5.29101V16.0605C5.29101 15.5727 5.68792 15.1757 6.17582 15.1757H11.8241C12.3121 15.1757 12.709 15.5727 12.709 16.0605ZM9.88479 14.121H8.11517V12.2354C8.40507 12.3118 8.70045 12.3515 8.99998 12.3515C9.29951 12.3515 9.59489 12.3118 9.88479 12.2355V14.121ZM10.2114 10.9808C10.1876 10.9906 10.1648 11.0024 10.143 11.0154C9.77025 11.2008 9.38726 11.2968 8.99998 11.2968C8.61284 11.2968 8.22999 11.2008 7.85741 11.0157C7.83527 11.0023 7.81218 10.9905 7.78832 10.9805C7.37482 10.7619 6.97481 10.4318 6.59646 9.99793C6.57668 9.96963 6.55419 9.94333 6.52931 9.91939C6.1537 9.4735 5.80035 8.92499 5.47765 8.27956C4.5085 6.3414 3.94874 3.793 3.88504 1.05469H14.1149C14.0511 3.793 13.4913 6.34158 12.5223 8.27956C12.1996 8.92503 11.8463 9.47347 11.4708 9.91939C11.4458 9.94329 11.4232 9.96966 11.4034 9.9981C11.025 10.432 10.6249 10.762 10.2114 10.9808ZM15.383 7.51959C14.7142 8.52481 13.9025 9.21725 13.0254 9.54846C13.1832 9.28901 13.3301 9.02305 13.4656 8.75129C14.3487 6.98539 14.9135 4.76064 15.1038 2.35381H16.9342C16.8513 4.31173 16.308 6.12966 15.383 7.51959Z" fill="#FFCC00"/>
</g>
<defs>
<clipPath id="clip0_340_3644">
<rect width="18" height="18" fill="white"/>
</clipPath>
</defs>
</svg>
