<svg width="40" height="40" viewBox="0 0 40 40" fill="none" xmlns="http://www.w3.org/2000/svg">
<rect width="40" height="40" rx="20" fill="white" fill-opacity="0.16"/>
<path d="M25.5248 22.5554C25.7066 22.8005 25.8087 23.1328 25.8087 23.4793C25.8087 23.8259 25.7066 24.1582 25.5248 24.4033C25.3431 24.6483 25.0966 24.786 24.8396 24.786C24.5826 24.786 24.3361 24.6483 24.1543 24.4033L23.228 23.1522V28.6956C23.228 29.0416 23.1261 29.3733 22.9447 29.618C22.7633 29.8626 22.5172 30 22.2606 30C22.004 30 21.758 29.8626 21.5766 29.618C21.3951 29.3733 21.2932 29.0416 21.2932 28.6956V23.1522L20.3653 24.4043C20.1836 24.6494 19.9371 24.787 19.68 24.787C19.423 24.787 19.1765 24.6494 18.9948 24.4043C18.8131 24.1593 18.711 23.827 18.711 23.4804C18.711 23.1339 18.8131 22.8016 18.9948 22.5565L21.5746 19.0783C21.6644 18.9567 21.7712 18.8602 21.8888 18.7943C22.0064 18.7285 22.1325 18.6946 22.2598 18.6946C22.3871 18.6946 22.5132 18.7285 22.6308 18.7943C22.7484 18.8602 22.8552 18.9567 22.9451 19.0783L25.5248 22.5554ZM22.5831 10C21.2441 10.0009 19.9303 10.49 18.7807 11.4156C17.6311 12.3411 16.6886 13.6687 16.0531 15.2576C15.3128 15.1531 14.5646 15.2529 13.8539 15.5509C13.1432 15.8489 12.485 16.3389 11.9193 16.9911C11.3537 17.6432 10.8924 18.4439 10.5637 19.3442C10.235 20.2445 10.0456 21.2256 10.0073 22.2277C9.96893 23.2299 10.0823 24.2321 10.3406 25.1732C10.5988 26.1144 10.9965 26.9748 11.5093 27.702C12.0222 28.4292 12.6395 29.0079 13.3237 29.403C14.0078 29.7981 14.7445 30.0012 15.4887 30H17.746C18.0026 30 18.2487 29.8626 18.4301 29.618C18.6115 29.3733 18.7134 29.0416 18.7134 28.6956C18.7134 28.3497 18.6115 28.0179 18.4301 27.7733C18.2487 27.5287 18.0026 27.3913 17.746 27.3913H15.4887C14.5644 27.3837 13.6788 26.8898 13.0204 26.0149C12.3621 25.1401 11.9831 23.9532 11.964 22.7072C11.945 21.4611 12.2875 20.2543 12.9186 19.3436C13.5497 18.433 14.4195 17.8904 15.3428 17.8315C15.2253 18.5435 15.1661 19.2706 15.1663 20C15.1663 20.3459 15.2682 20.6777 15.4496 20.9223C15.631 21.1669 15.8771 21.3043 16.1337 21.3043C16.3902 21.3043 16.6363 21.1669 16.8177 20.9223C16.9992 20.6777 17.1011 20.3459 17.1011 20C17.1018 18.9308 17.2745 17.8745 17.6073 16.904C17.9402 15.9335 18.4252 15.0719 19.029 14.3787C19.6328 13.6855 20.3409 13.1772 21.1045 12.8888C21.8682 12.6004 22.6691 12.5389 23.4521 12.7084C24.2351 12.8779 24.9815 13.2744 25.6398 13.8706C26.2981 14.4668 26.8527 15.2485 27.2651 16.1617C27.6776 17.0749 27.9383 18.0979 28.029 19.1601C28.1198 20.2223 28.0386 21.2984 27.791 22.3141C27.7512 22.4769 27.7356 22.6485 27.7451 22.8194C27.7546 22.9902 27.7889 23.1569 27.8461 23.3099C27.9033 23.4628 27.9824 23.5991 28.0786 23.7109C28.1749 23.8227 28.2866 23.9078 28.4073 23.9614C28.528 24.015 28.6553 24.036 28.7821 24.0233C28.9088 24.0105 29.0324 23.9642 29.1458 23.8871C29.2593 23.8099 29.3603 23.7034 29.4433 23.5736C29.5262 23.4437 29.5893 23.2932 29.6291 23.1304C29.9952 21.6281 30.0921 20.0301 29.9117 18.4675C29.7313 16.9049 29.2788 15.4222 28.5912 14.1409C27.9037 12.8597 27.0008 11.8164 25.9564 11.0966C24.912 10.3768 23.756 10.001 22.5831 10Z" fill="white"/>
</svg>
