<svg width="20" height="20" viewBox="0 0 20 20" fill="none" xmlns="http://www.w3.org/2000/svg">
    <path fill-rule="evenodd" clip-rule="evenodd" d="M4.22917 4.22799C4.40052 4.05686 4.63279 3.96073 4.87496 3.96073C5.11713 3.96073 5.34939 4.05686 5.52074 4.22799L9.7488 8.45605L13.9769 4.22799C14.0605 4.13821 14.1614 4.06619 14.2735 4.01625C14.3856 3.9663 14.5066 3.93944 14.6293 3.93728C14.752 3.93511 14.8739 3.95768 14.9877 4.00364C15.1015 4.04961 15.2049 4.11802 15.2916 4.20479C15.3784 4.29157 15.4468 4.39494 15.4928 4.50873C15.5387 4.62252 15.5613 4.7444 15.5591 4.8671C15.557 4.9898 15.5301 5.11081 15.4802 5.22291C15.4302 5.33501 15.3582 5.4359 15.2684 5.51956L11.0404 9.74762L15.2684 13.9757C15.3582 14.0593 15.4302 14.1602 15.4802 14.2723C15.5301 14.3844 15.557 14.5054 15.5591 14.6281C15.5613 14.7508 15.5387 14.8727 15.4928 14.9865C15.4468 15.1003 15.3784 15.2037 15.2916 15.2904C15.2049 15.3772 15.1015 15.4456 14.9877 15.4916C14.8739 15.5376 14.752 15.5601 14.6293 15.558C14.5066 15.5558 14.3856 15.5289 14.2735 15.479C14.1614 15.4291 14.0605 15.357 13.9769 15.2673L9.7488 11.0392L5.52074 15.2673C5.34751 15.4287 5.11838 15.5166 4.88163 15.5124C4.64488 15.5082 4.419 15.4123 4.25156 15.2449C4.08413 15.0774 3.98822 14.8515 3.98405 14.6148C3.97987 14.378 4.06775 14.1489 4.22917 13.9757L8.45723 9.74762L4.22917 5.51956C4.05804 5.34821 3.96191 5.11595 3.96191 4.87378C3.96191 4.63161 4.05804 4.39934 4.22917 4.22799Z" fill="white"/>
</svg>
