<svg width="19" height="19" viewBox="0 0 19 19" fill="none" xmlns="http://www.w3.org/2000/svg">
    <path d="M10.9436 3.65291C12.322 5.03137 13.6636 6.38522 15.042 7.76368C14.9559 7.86214 14.8451 7.98522 14.722 8.1083C11.8051 11.0252 8.90047 13.9545 5.95894 16.8468C5.5897 17.2037 5.08509 17.4745 4.60509 17.6468C3.46047 18.0283 2.29124 18.336 1.13432 18.656C0.420473 18.8529 -0.157988 18.3114 0.038935 17.5852C0.395858 16.2683 0.789704 14.9514 1.19586 13.6345C1.28201 13.3637 1.46663 13.1052 1.66355 12.896C4.70355 9.84368 7.74355 6.80368 10.7959 3.75137C10.8328 3.73907 10.882 3.70214 10.9436 3.65291ZM15.9897 6.81599C14.6112 5.42522 13.2574 4.07137 11.9405 2.72984C12.6174 2.0283 13.3066 1.2283 14.082 0.539066C14.9189 -0.211703 16.1866 -0.162472 17.0482 0.588297C17.4297 0.920605 17.7866 1.27753 18.1189 1.65907C18.882 2.53291 18.8943 3.84984 18.1189 4.71137C17.442 5.43753 16.7036 6.10214 15.9897 6.81599Z" fill="white"/>
</svg>
