<svg width="18" height="18" viewBox="0 0 18 18" fill="none" xmlns="http://www.w3.org/2000/svg">
<g clip-path="url(#clip0_152_1197)">
<path fill-rule="evenodd" clip-rule="evenodd" d="M2.20967 3.458L7.07249 8.32293C8.13308 9.38148 9.86677 9.38239 10.9282 8.32293L15.7911 3.458C15.8026 3.44657 15.8114 3.43275 15.817 3.41752C15.8225 3.40229 15.8247 3.38602 15.8232 3.36987C15.8218 3.35372 15.8168 3.33808 15.8087 3.32407C15.8005 3.31005 15.7894 3.298 15.7761 3.28876C15.2801 2.94286 14.6766 2.73779 14.0266 2.73779H3.97416C3.32409 2.73779 2.72063 2.94289 2.22465 3.28876C2.21132 3.298 2.20019 3.31005 2.19204 3.32407C2.18389 3.33808 2.17893 3.35372 2.1775 3.36987C2.17607 3.38602 2.17821 3.40229 2.18377 3.41752C2.18933 3.43275 2.19817 3.44657 2.20967 3.458ZM0.910157 5.80177C0.909761 5.30746 1.02989 4.82051 1.26014 4.38311C1.26818 4.36768 1.27974 4.35438 1.29389 4.34427C1.30803 4.33416 1.32437 4.32753 1.34156 4.32492C1.35875 4.32231 1.37632 4.32379 1.39283 4.32925C1.40934 4.3347 1.42433 4.34398 1.43659 4.35632L6.23784 9.15757C7.75824 10.6802 10.2416 10.6811 11.7629 9.15757L16.5642 4.35632C16.5764 4.34398 16.5914 4.3347 16.6079 4.32925C16.6244 4.32379 16.642 4.32231 16.6592 4.32492C16.6764 4.32753 16.6927 4.33416 16.7069 4.34427C16.721 4.35438 16.7326 4.36768 16.7406 4.38311C16.9709 4.82052 17.091 5.30746 17.0906 5.80177V12.198C17.0906 13.8888 15.7153 15.262 14.0266 15.262H3.97416C2.28554 15.262 0.910157 13.8888 0.910157 12.198V5.80177Z" fill="#909090"/>
</g>
<defs>
<clipPath id="clip0_152_1197">
<rect width="18" height="18" fill="white"/>
</clipPath>
</defs>
</svg>
