<svg width="16" height="16" viewBox="0 0 16 16" fill="none" xmlns="http://www.w3.org/2000/svg">
<g clip-path="url(#clip0_257_2175)">
<path d="M9.06892 11.2731C8.90534 11.2883 8.74114 11.2514 8.59983 11.1676C8.54886 11.1153 8.5103 11.0521 8.48701 10.9829C8.46373 10.9137 8.4563 10.8401 8.4653 10.7676C8.46911 10.6453 8.48371 10.5236 8.50892 10.404C8.53333 10.2666 8.56486 10.1307 8.60345 9.99668L9.03255 8.5203C9.0768 8.37457 9.10605 8.2247 9.11983 8.07302C9.11983 7.9094 9.14164 7.79665 9.14164 7.73121C9.14615 7.58724 9.11807 7.44411 9.05951 7.31251C9.00095 7.18091 8.91342 7.06424 8.80345 6.97121C8.52942 6.76083 8.18817 6.65743 7.84345 6.6803C7.59642 6.68402 7.35131 6.72446 7.11617 6.8003C6.8592 6.8803 6.58889 6.97605 6.30527 7.08758L6.18164 7.56758C6.26527 7.53849 6.36711 7.50577 6.48345 7.4694C6.59445 7.43651 6.70951 7.41938 6.82527 7.41849C6.98765 7.40089 7.15106 7.44078 7.28708 7.53121C7.33279 7.58576 7.36699 7.649 7.38762 7.71712C7.40824 7.78524 7.41486 7.85684 7.40708 7.92758C7.40667 8.04987 7.39326 8.17176 7.36708 8.29121C7.34161 8.41849 7.30889 8.55302 7.26889 8.69483L6.83617 10.1785C6.8013 10.3164 6.77339 10.4559 6.75255 10.5966C6.73555 10.7171 6.72704 10.8386 6.72708 10.9603C6.7262 11.1052 6.75852 11.2483 6.82155 11.3788C6.88458 11.5093 6.97665 11.6236 7.0907 11.713C7.36896 11.9266 7.71506 12.0325 8.06523 12.0112C8.31181 12.0162 8.55754 11.9806 8.79252 11.9057C8.99858 11.8354 9.27373 11.7348 9.61798 11.6039L9.73436 11.1457C9.64111 11.1844 9.54508 11.216 9.44708 11.2402C9.32314 11.2685 9.19588 11.2796 9.06892 11.2731ZM9.52345 4.27305C9.32555 4.0913 9.06479 3.99352 8.79617 4.00033C8.52769 3.99428 8.2672 4.09196 8.06889 4.27305C7.70539 4.58649 7.6648 5.13527 7.97827 5.4988C8.0062 5.5312 8.03649 5.56149 8.06889 5.58943C8.48302 5.95983 9.10933 5.95983 9.52342 5.58943C9.88692 5.2729 9.92502 4.72165 9.60848 4.35815C9.58214 4.32785 9.55373 4.29942 9.52345 4.27305Z" fill="#8F8F8F"/>
<path d="M8 0C3.58172 0 0 3.58172 0 8C0 12.4183 3.58172 16 8 16C12.4183 16 16 12.4183 16 8C16 3.58172 12.4183 0 8 0ZM8 15.2727C3.98338 15.2727 0.727281 12.0166 0.727281 8C0.727281 3.98338 3.98338 0.727281 8 0.727281C12.0166 0.727281 15.2727 3.98338 15.2727 8C15.2727 12.0166 12.0166 15.2727 8 15.2727Z" fill="#8F8F8F"/>
</g>
<defs>
<clipPath id="clip0_257_2175">
<rect width="16" height="16" fill="white"/>
</clipPath>
</defs>
</svg>
