<svg width="45" height="45" viewBox="0 0 45 45" fill="none" xmlns="http://www.w3.org/2000/svg">
<path d="M39.0474 10.1194L31.7757 2.84767C31.3642 2.43404 30.8748 2.1061 30.3358 1.88282C29.7968 1.65954 29.2189 1.54537 28.6355 1.54689H15.023C13.8448 1.54801 12.7152 2.01655 11.882 2.84967C11.0489 3.68279 10.5804 4.81243 10.5793 5.99064V7.48127H9.08863C7.91277 7.48275 6.7855 7.95052 5.95404 8.78198C5.12258 9.61344 4.65481 10.7407 4.65332 11.9166V39.0178C4.65481 40.1937 5.12258 41.321 5.95404 42.1524C6.7855 42.9839 7.91277 43.4517 9.08863 43.4531H29.9883C31.1642 43.4517 32.2915 42.9839 33.1229 42.1524C33.9544 41.321 34.4221 40.1937 34.4236 39.0178V37.523H35.9058C37.0829 37.5215 38.2114 37.0533 39.0439 36.2211C39.8764 35.3889 40.3449 34.2606 40.3468 33.0835V13.2567C40.3468 12.0895 39.8728 10.9449 39.0474 10.1194ZM36.0211 10.6735H33.1158C32.0696 10.6735 31.2174 9.82267 31.2174 8.77501V5.8697L36.0211 10.6735ZM31.8924 39.0178C31.8924 40.0683 31.0388 40.9219 29.9883 40.9219H9.08863C8.58387 40.9211 8.1 40.7203 7.74308 40.3634C7.38616 40.0065 7.18531 39.5226 7.18457 39.0178V11.9166C7.18457 10.8661 8.03816 10.0125 9.08863 10.0125H10.5807V33.0849C10.5822 34.2617 11.0504 35.3899 11.8827 36.2219C12.715 37.054 13.8433 37.5219 15.0202 37.523H31.8924V39.0178ZM37.8155 33.0835C37.8155 34.1367 36.9605 34.9917 35.9072 34.9917H15.0202C14.5146 34.9914 14.0298 34.7903 13.6722 34.4328C13.3147 34.0753 13.1137 33.5905 13.1133 33.0849V5.99064C13.1133 4.93595 13.9697 4.07814 15.0244 4.07814H28.6369C28.6538 4.07814 28.6693 4.08798 28.6861 4.08798V8.77501C28.6872 9.9495 29.1543 11.0756 29.9848 11.906C30.8153 12.7365 31.9413 13.2036 33.1158 13.2047H37.8043C37.8043 13.223 37.8141 13.2385 37.8141 13.2567V33.0835H37.8155Z" fill="#43A047"/>
<path d="M18.602 19.3711H24.0667C24.4023 19.3711 24.7243 19.2378 24.9616 19.0004C25.199 18.763 25.3323 18.4411 25.3323 18.1055C25.3323 17.7698 25.199 17.4479 24.9616 17.2105C24.7243 16.9732 24.4023 16.8398 24.0667 16.8398H18.602C18.2663 16.8398 17.9444 16.9732 17.7071 17.2105C17.4697 17.4479 17.3364 17.7698 17.3364 18.1055C17.3364 18.4411 17.4697 18.763 17.7071 19.0004C17.9444 19.2378 18.2663 19.3711 18.602 19.3711ZM32.3256 22.8347H18.6006C18.2649 22.8347 17.943 22.968 17.7057 23.2054C17.4683 23.4427 17.335 23.7646 17.335 24.1003C17.335 24.436 17.4683 24.7579 17.7057 24.9952C17.943 25.2326 18.2649 25.3659 18.6006 25.3659H32.3256C32.6612 25.3659 32.9832 25.2326 33.2205 24.9952C33.4579 24.7579 33.5912 24.436 33.5912 24.1003C33.5912 23.7646 33.4579 23.4427 33.2205 23.2054C32.9832 22.968 32.6612 22.8347 32.3256 22.8347ZM29.4428 28.8295H18.602C18.2663 28.8295 17.9444 28.9629 17.7071 29.2002C17.4697 29.4376 17.3364 29.7595 17.3364 30.0952C17.3364 30.4308 17.4697 30.7527 17.7071 30.9901C17.9444 31.2274 18.2663 31.3608 18.602 31.3608H29.4428C29.7784 31.3608 30.1004 31.2274 30.3377 30.9901C30.5751 30.7527 30.7084 30.4308 30.7084 30.0952C30.7084 29.7595 30.5751 29.4376 30.3377 29.2002C30.1004 28.9629 29.7784 28.8295 29.4428 28.8295Z" fill="#43A047"/>
</svg>
