<svg width="14" height="24" viewBox="0 0 14 24" fill="none" xmlns="http://www.w3.org/2000/svg">
<g clip-path="url(#clip0_379_1847)">
<path d="M7.12702 15.6079C8.50857 15.6063 9.83309 15.0568 10.81 14.0799C11.7869 13.103 12.3364 11.7784 12.338 10.3969V5.91089H1.91602V10.3969C1.91839 11.778 2.46804 13.1019 3.44456 14.0786C4.42108 15.0554 5.74588 15.6052 7.12702 15.6079ZM2.57402 6.50689H4.41402V6.91289H2.57402V6.50689ZM2.57402 7.98189H4.41402V8.38789H2.57402V7.98189ZM2.57402 9.44989H4.41402V9.85589H2.57402V9.44989ZM2.57402 10.9249H4.41402V11.3309H2.57402V10.9249Z" fill="white"/>
<path d="M12.978 2.34375e-05H0V10.4C0.00170614 12.0476 0.573184 13.644 1.61753 14.9183C2.66188 16.1927 4.11482 17.0667 5.73 17.392L5.776 17.4V17.67C5.776 17.88 6.003 18.045 6.286 18.045H6.716V19.501H6.555C6.48188 19.5013 6.41183 19.5305 6.36013 19.5822C6.30843 19.6339 6.27926 19.7039 6.279 19.777V21.929C6.279 22.081 6.402 22.203 6.553 22.203H6.715V24H7.545V22.206H7.707C7.78012 22.2058 7.85017 22.1766 7.90187 22.1249C7.95357 22.0732 7.98274 22.0031 7.983 21.93V19.775C7.98274 19.7019 7.95357 19.6319 7.90187 19.5802C7.85017 19.5285 7.78012 19.4993 7.707 19.499H7.545V18.043H7.975C8.261 18.043 8.486 17.877 8.486 17.668V17.398C11.797 16.737 14.258 13.856 14.262 10.399V-0.000976562L12.978 2.34375e-05ZM12.978 10.4C12.9502 11.9328 12.3219 13.3935 11.2283 14.4678C10.1346 15.5422 8.66301 16.1443 7.12996 16.1449C5.59691 16.1454 4.1249 15.5442 3.03052 14.4706C1.93615 13.397 1.30686 11.9368 1.278 10.404V1.28002H12.978V10.4Z" fill="white"/>
<path d="M2.5752 2.09009H4.4122V2.49609H2.5752V2.09009ZM2.5752 3.56409H4.4122V3.97009H2.5752V3.56409ZM2.5752 5.03909H4.4122V5.44509H2.5752V5.03909Z" fill="white"/>
</g>
<defs>
<clipPath id="clip0_379_1847">
<rect width="14" height="24" fill="white"/>
</clipPath>
</defs>
</svg>
