<svg width="45" height="45" viewBox="0 0 45 45" fill="none" xmlns="http://www.w3.org/2000/svg">
<g clip-path="url(#clip0_301_1707)">
<path d="M34.1288 42.1808C34.6018 42.6546 35.9942 42.0308 36.468 41.5569L37.2481 40.7769C37.7219 40.3031 38.3457 38.9106 37.8719 38.4368L26.1441 27.3072L23.0778 30.5377L34.1288 42.1808ZM14.6819 16.4265C16.2075 13.7732 15.401 10.5569 12.9983 8.15414C10.1588 5.3155 4.02793 2.53863 1.18929 5.37815C-1.65023 8.21767 1.12664 14.3485 3.96528 17.1871C6.32214 19.544 9.46256 20.3664 12.0877 18.9554L17.6449 24.8127L20.5806 22.027L14.6819 16.4265Z" fill="#2BB731"/>
<path d="M29.129 16.3445L5.85071 38.4368C5.37687 38.9106 6.00071 40.3031 6.47456 40.7769L7.25459 41.5569C7.60931 41.9116 8.47758 42.3493 9.09084 42.3493C9.29732 42.3493 9.47556 42.2981 9.59468 42.1808L31.7682 18.816C32.3876 19.1205 33.0362 19.2925 33.6927 19.3516C35.6595 19.5316 37.7102 18.6696 39.3594 17.0204C44.9502 11.4304 45.9535 10.1995 44.2372 8.04561L37.6378 14.3706C37.4878 14.5204 37.2851 14.6056 37.0731 14.6079C36.9824 14.6087 36.8924 14.5914 36.8085 14.557C36.7246 14.5226 36.6483 14.4718 36.5843 14.4076L36.4078 14.232C36.3438 14.1676 36.2933 14.0912 36.259 14.0071C36.2248 13.9231 36.2076 13.8331 36.2084 13.7423C36.2122 13.5278 36.2996 13.3233 36.4519 13.1723L42.4424 6.14406L42.0145 5.71611C41.7577 5.45933 41.5186 5.21932 41.2927 4.99078L34.238 11.0087C34.0915 11.1491 33.8965 11.2278 33.6936 11.2284C33.6029 11.2292 33.5129 11.2119 33.429 11.1775C33.345 11.1431 33.2688 11.0923 33.2047 11.0281L33.0282 10.8525C32.9643 10.7881 32.9137 10.7117 32.8795 10.6276C32.8453 10.5435 32.828 10.4535 32.8288 10.3628C32.8326 10.1483 32.92 9.94376 33.0724 9.79274L39.3656 3.22601C37.3352 1.75066 36.1016 2.98071 30.7084 8.37298C28.9146 10.1669 28.0525 12.4355 28.4504 14.5523C28.5687 15.1691 28.791 15.77 29.129 16.3445Z" fill="#2BB731"/>
</g>
<defs>
<clipPath id="clip0_301_1707">
<rect width="45" height="45" fill="white"/>
</clipPath>
</defs>
</svg>
