<svg width="32" height="26" viewBox="0 0 32 26" fill="none" xmlns="http://www.w3.org/2000/svg">
    <path fill-rule="evenodd" clip-rule="evenodd" d="M7.80428 0.341844C13.0527 -0.113948 18.3308 -0.113948 23.5793 0.341844L26.0959 0.561844C27.2658 0.664286 28.3671 1.1572 29.223 1.96131C30.0788 2.76542 30.6392 3.83399 30.8143 4.99518C31.5702 10.0225 31.5702 15.1345 30.8143 20.1618C30.7465 20.603 30.6287 21.0218 30.4609 21.4185C30.3509 21.6802 30.0109 21.7202 29.8176 21.5102L22.4493 13.4035C22.2863 13.2243 22.0748 13.0963 21.8405 13.035C21.6062 12.9738 21.3591 12.9819 21.1293 13.0585L16.9109 14.4652L10.7926 7.58184C10.6794 7.45451 10.5414 7.35166 10.3871 7.27959C10.2327 7.20753 10.0652 7.16778 9.89495 7.16279C9.72467 7.15779 9.55516 7.18766 9.39684 7.25055C9.23851 7.31344 9.09472 7.40803 8.97428 7.52851L0.784277 15.7185C0.728638 15.7757 0.657521 15.8154 0.579645 15.8328C0.501769 15.8501 0.420518 15.8444 0.345853 15.8163C0.271188 15.7881 0.206353 15.7388 0.159298 15.6744C0.112244 15.61 0.0850127 15.5332 0.0809442 15.4535C-0.116152 11.9594 0.0469293 8.45424 0.567611 4.99351C0.742646 3.83232 1.30313 2.76375 2.15894 1.95964C3.01474 1.15553 4.11612 0.66262 5.28594 0.560177L7.80428 0.341844ZM19.0243 7.57851C19.0243 6.91547 19.2877 6.27958 19.7565 5.81074C20.2253 5.3419 20.8612 5.07851 21.5243 5.07851C22.1873 5.07851 22.8232 5.3419 23.292 5.81074C23.7609 6.27958 24.0243 6.91547 24.0243 7.57851C24.0243 8.24155 23.7609 8.87744 23.292 9.34628C22.8232 9.81512 22.1873 10.0785 21.5243 10.0785C20.8612 10.0785 20.2253 9.81512 19.7565 9.34628C19.2877 8.87744 19.0243 8.24155 19.0243 7.57851Z" fill="white"/>
    <path d="M0.626423 19.4117C0.581411 19.4572 0.547473 19.5124 0.527241 19.5731C0.507009 19.6338 0.501027 19.6984 0.509757 19.7617L0.56809 20.1617C0.743125 21.3229 1.30361 22.3915 2.15942 23.1956C3.01522 23.9997 4.1166 24.4926 5.28642 24.5951L7.80309 24.8134C13.0531 25.2701 18.3298 25.2701 23.5798 24.8134L26.0964 24.5951C26.7869 24.5367 27.4585 24.34 28.0714 24.0167C28.2998 23.8984 28.3381 23.5967 28.1648 23.4067L21.3314 15.8901C21.2772 15.8297 21.2065 15.7865 21.128 15.7658C21.0495 15.7451 20.9667 15.7477 20.8898 15.7734L16.9198 17.0967C16.6877 17.1742 16.4379 17.1819 16.2015 17.1188C15.9651 17.0557 15.7524 16.9246 15.5898 16.7417L10.0981 10.5634C10.0603 10.5209 10.0142 10.4867 9.96264 10.4627C9.91109 10.4387 9.85519 10.4255 9.79836 10.424C9.74153 10.4224 9.68498 10.4325 9.6322 10.4536C9.57941 10.4747 9.5315 10.5064 9.49142 10.5467L0.626423 19.4117Z" fill="white"/>
</svg>
