<svg width="28" height="30" viewBox="0 0 28 30" fill="none" xmlns="http://www.w3.org/2000/svg">
<path d="M10.5 26.5025H2.5C2.1023 26.5021 1.721 26.3439 1.43978 26.0627C1.15856 25.7815 1.0004 25.4002 1 25.0025V5.50251C1.0004 5.1048 1.15856 4.7235 1.43978 4.44228C1.721 4.16107 2.1023 4.0029 2.5 4.00251H4.5V5.00251C4.5004 5.40021 4.65856 5.78151 4.93978 6.06273C5.221 6.34395 5.6023 6.50211 6 6.50251H14C14.3977 6.50211 14.779 6.34395 15.0602 6.06273C15.3414 5.78151 15.4996 5.40021 15.5 5.00251V4.00251H17.5C17.8977 4.0029 18.279 4.16107 18.5602 4.44228C18.8414 4.7235 18.9996 5.1048 19 5.50251V12.5025C19 12.6351 19.0527 12.7623 19.1464 12.8561C19.2402 12.9498 19.3674 13.0025 19.5 13.0025C19.6326 13.0025 19.7598 12.9498 19.8536 12.8561C19.9473 12.7623 20 12.6351 20 12.5025V5.50251C19.9992 4.83971 19.7356 4.20429 19.2669 3.73562C18.7982 3.26695 18.1628 3.0033 17.5 3.00251H15.408C15.3053 2.71085 15.1148 2.45815 14.8627 2.27909C14.6106 2.10004 14.3092 2.00342 14 2.00251H12.45C12.3352 1.43736 12.0286 0.929269 11.5821 0.564317C11.1356 0.199366 10.5767 0 10 0C9.42332 0 8.86438 0.199366 8.41787 0.564317C7.97136 0.929269 7.66476 1.43736 7.55 2.00251H6C5.69078 2.00342 5.38943 2.10004 5.13733 2.27909C4.88522 2.45815 4.69473 2.71085 4.592 3.00251H2.5C1.8372 3.0033 1.20178 3.26695 0.73311 3.73562C0.264441 4.20429 0.000793929 4.83971 0 5.50251V25.0025C0.000793929 25.6653 0.264441 26.3007 0.73311 26.7694C1.20178 27.2381 1.8372 27.5017 2.5 27.5025H10.5C10.6326 27.5025 10.7598 27.4498 10.8536 27.3561C10.9473 27.2623 11 27.1351 11 27.0025C11 26.8699 10.9473 26.7427 10.8536 26.649C10.7598 26.5552 10.6326 26.5025 10.5 26.5025ZM5.5 3.50251C5.5 3.3699 5.55268 3.24272 5.64645 3.14895C5.74021 3.05518 5.86739 3.00251 6 3.00251H8C8.13261 3.00251 8.25979 2.94983 8.35355 2.85606C8.44732 2.76229 8.5 2.63511 8.5 2.50251C8.5 2.10468 8.65804 1.72315 8.93934 1.44185C9.22064 1.16054 9.60218 1.00251 10 1.00251C10.3978 1.00251 10.7794 1.16054 11.0607 1.44185C11.342 1.72315 11.5 2.10468 11.5 2.50251C11.5 2.63511 11.5527 2.76229 11.6464 2.85606C11.7402 2.94983 11.8674 3.00251 12 3.00251H14C14.1326 3.00251 14.2598 3.05518 14.3536 3.14895C14.4473 3.24272 14.5 3.3699 14.5 3.50251V5.00251C14.5 5.13511 14.4473 5.26229 14.3536 5.35606C14.2598 5.44983 14.1326 5.50251 14 5.50251H6C5.86739 5.50251 5.74021 5.44983 5.64645 5.35606C5.55268 5.26229 5.5 5.13511 5.5 5.00251V3.50251ZM7 9.00251C7 8.8699 6.94732 8.74272 6.85355 8.64895C6.75979 8.55518 6.63261 8.50251 6.5 8.50251H3.5C3.36739 8.50251 3.24021 8.55518 3.14645 8.64895C3.05268 8.74272 3 8.8699 3 9.00251V12.0025C3 12.1351 3.05268 12.2623 3.14645 12.3561C3.24021 12.4498 3.36739 12.5025 3.5 12.5025H6.5C6.63261 12.5025 6.75979 12.4498 6.85355 12.3561C6.94732 12.2623 7 12.1351 7 12.0025V9.00251ZM6 11.5025H4V9.50251H6V11.5025ZM7 15.0025C7 14.8699 6.94732 14.7427 6.85355 14.649C6.75979 14.5552 6.63261 14.5025 6.5 14.5025H3.5C3.36739 14.5025 3.24021 14.5552 3.14645 14.649C3.05268 14.7427 3 14.8699 3 15.0025V18.0025C3 18.1351 3.05268 18.2623 3.14645 18.3561C3.24021 18.4498 3.36739 18.5025 3.5 18.5025H6.5C6.63261 18.5025 6.75979 18.4498 6.85355 18.3561C6.94732 18.2623 7 18.1351 7 18.0025V15.0025ZM6 17.5025H4V15.5025H6V17.5025ZM6.5 20.5025H3.5C3.36739 20.5025 3.24021 20.5552 3.14645 20.649C3.05268 20.7427 3 20.8699 3 21.0025V24.0025C3 24.1351 3.05268 24.2623 3.14645 24.3561C3.24021 24.4498 3.36739 24.5025 3.5 24.5025H6.5C6.63261 24.5025 6.75979 24.4498 6.85355 24.3561C6.94732 24.2623 7 24.1351 7 24.0025V21.0025C7 20.8699 6.94732 20.7427 6.85355 20.649C6.75979 20.5552 6.63261 20.5025 6.5 20.5025ZM6 23.5025H4V21.5025H6V23.5025ZM17 9.00251C17 9.13511 16.9473 9.26229 16.8536 9.35606C16.7598 9.44983 16.6326 9.50251 16.5 9.50251H9C8.86739 9.50251 8.74021 9.44983 8.64645 9.35606C8.55268 9.26229 8.5 9.13511 8.5 9.00251C8.5 8.8699 8.55268 8.74272 8.64645 8.64895C8.74021 8.55518 8.86739 8.50251 9 8.50251H16.5C16.6326 8.50251 16.7598 8.55518 16.8536 8.64895C16.9473 8.74272 17 8.8699 17 9.00251ZM8.5 12.0025C8.5 11.8699 8.55268 11.7427 8.64645 11.649C8.74021 11.5552 8.86739 11.5025 9 11.5025H13.5C13.6326 11.5025 13.7598 11.5552 13.8536 11.649C13.9473 11.7427 14 11.8699 14 12.0025C14 12.1351 13.9473 12.2623 13.8536 12.3561C13.7598 12.4498 13.6326 12.5025 13.5 12.5025H9C8.86739 12.5025 8.74021 12.4498 8.64645 12.3561C8.55268 12.2623 8.5 12.1351 8.5 12.0025ZM16.5 15.5025H9C8.86739 15.5025 8.74021 15.4498 8.64645 15.3561C8.55268 15.2623 8.5 15.1351 8.5 15.0025C8.5 14.8699 8.55268 14.7427 8.64645 14.649C8.74021 14.5552 8.86739 14.5025 9 14.5025H16.5C16.6326 14.5025 16.7598 14.5552 16.8536 14.649C16.9473 14.7427 17 14.8699 17 15.0025C17 15.1351 16.9473 15.2623 16.8536 15.3561C16.7598 15.4498 16.6326 15.5025 16.5 15.5025ZM13.5 17.5025C13.6326 17.5025 13.7598 17.5552 13.8536 17.649C13.9473 17.7427 14 17.8699 14 18.0025C14 18.1351 13.9473 18.2623 13.8536 18.3561C13.7598 18.4498 13.6326 18.5025 13.5 18.5025H9C8.86739 18.5025 8.74021 18.4498 8.64645 18.3561C8.55268 18.2623 8.5 18.1351 8.5 18.0025C8.5 17.8699 8.55268 17.7427 8.64645 17.649C8.74021 17.5552 8.86739 17.5025 9 17.5025H13.5ZM11 21.0025C11 21.1351 10.9473 21.2623 10.8536 21.3561C10.7598 21.4498 10.6326 21.5025 10.5 21.5025H9C8.86739 21.5025 8.74021 21.4498 8.64645 21.3561C8.55268 21.2623 8.5 21.1351 8.5 21.0025C8.5 20.8699 8.55268 20.7427 8.64645 20.649C8.74021 20.5552 8.86739 20.5025 9 20.5025H10.5C10.6326 20.5025 10.7598 20.5552 10.8536 20.649C10.9473 20.7427 11 20.8699 11 21.0025ZM11 24.0025C11 24.1351 10.9473 24.2623 10.8536 24.3561C10.7598 24.4498 10.6326 24.5025 10.5 24.5025H9C8.86739 24.5025 8.74021 24.4498 8.64645 24.3561C8.55268 24.2623 8.5 24.1351 8.5 24.0025C8.5 23.8699 8.55268 23.7427 8.64645 23.649C8.74021 23.5552 8.86739 23.5025 9 23.5025H10.5C10.6326 23.5025 10.7598 23.5552 10.8536 23.649C10.9473 23.7427 11 23.8699 11 24.0025ZM27.207 20.0025L27.5 19.7095C27.8201 19.3894 27.9999 18.9552 27.9999 18.5025C27.9999 18.0498 27.8201 17.6156 27.5 17.2955L27.207 17.0025L27.707 16.5025C27.8944 16.3149 27.9996 16.0606 27.9996 15.7955C27.9996 15.5304 27.8944 15.2761 27.707 15.0885L26.914 14.2955C26.7263 14.1084 26.472 14.0033 26.207 14.0033C25.942 14.0033 25.6877 14.1084 25.5 14.2955L25 14.7955L24.707 14.5025C24.3818 14.1922 23.9495 14.0191 23.5 14.0191C23.0505 14.0191 22.6182 14.1922 22.293 14.5025L22 14.7955L21.707 14.5025C21.3818 14.1922 20.9495 14.0191 20.5 14.0191C20.0505 14.0191 19.6182 14.1922 19.293 14.5025L19 14.7955C18.6799 15.1156 18.5001 15.5498 18.5001 16.0025C18.5001 16.4552 18.6799 16.8894 19 17.2095L20.793 19.0025L17 22.7955L15.207 21.0025C14.8818 20.6922 14.4495 20.5191 14 20.5191C13.5505 20.5191 13.1182 20.6922 12.793 21.0025L12.5 21.2955C12.1799 21.6156 12.0001 22.0498 12.0001 22.5025C12.0001 22.9552 12.1799 23.3894 12.5 23.7095L12.793 24.0025L12.5 24.2955C12.1799 24.6156 12.0001 25.0498 12.0001 25.5025C12.0001 25.9552 12.1799 26.3894 12.5 26.7095L12.793 27.0025L12.293 27.5025C12.1057 27.6901 12.0004 27.9444 12.0004 28.2095C12.0004 28.4746 12.1057 28.7289 12.293 28.9165L13.086 29.7095C13.2737 29.8967 13.5279 30.0019 13.793 30.0019C14.0581 30.0019 14.3123 29.8967 14.5 29.7095L15 29.2095L15.293 29.5025C15.6131 29.8226 16.0473 30.0024 16.5 30.0024C16.9527 30.0024 17.3869 29.8226 17.707 29.5025L18 29.2095L18.293 29.5025C18.6131 29.8226 19.0473 30.0024 19.5 30.0024C19.9527 30.0024 20.3869 29.8226 20.707 29.5025L21 29.2095C21.3201 28.8894 21.4999 28.4552 21.4999 28.0025C21.4999 27.5498 21.3201 27.1156 21 26.7955L19.207 25.0025L23 21.2095L24.793 23.0025C25.1131 23.3226 25.5473 23.5024 26 23.5024C26.4527 23.5024 26.8869 23.3226 27.207 23.0025L27.5 22.7095C27.8201 22.3894 27.9999 21.9552 27.9999 21.5025C27.9999 21.0498 27.8201 20.6156 27.5 20.2955L27.207 20.0025ZM13.793 29.0025L13 28.2095L13.5 27.7095L14.293 28.5025L13.793 29.0025ZM17 28.7955C16.8652 28.9239 16.6862 28.9955 16.5 28.9955C16.3138 28.9955 16.1348 28.9239 16 28.7955L13.207 26.0025C13.0745 25.8698 13.0001 25.69 13.0001 25.5025C13.0001 25.315 13.0745 25.1352 13.207 25.0025L13.5 24.7095L17.293 28.5025L17 28.7955ZM20.293 27.5025C20.4255 27.6352 20.4999 27.815 20.4999 28.0025C20.4999 28.19 20.4255 28.3698 20.293 28.5025L20 28.7955C19.8652 28.9239 19.6862 28.9955 19.5 28.9955C19.3138 28.9955 19.1348 28.9239 19 28.7955L13.207 23.0025C13.0745 22.8698 13.0001 22.69 13.0001 22.5025C13.0001 22.315 13.0745 22.1352 13.207 22.0025L13.5 21.7095C13.6327 21.577 13.8125 21.5026 14 21.5026C14.1875 21.5026 14.3673 21.577 14.5 21.7095L20.293 27.5025ZM18.5 24.2955L17.707 23.5025L21.5 19.7095L22.293 20.5025L18.5 24.2955ZM26.793 22.0025L26.5 22.2955C26.3652 22.4239 26.1862 22.4955 26 22.4955C25.8138 22.4955 25.6348 22.4239 25.5 22.2955L19.707 16.5025C19.5745 16.3698 19.5001 16.19 19.5001 16.0025C19.5001 15.815 19.5745 15.6352 19.707 15.5025L20 15.2095C20.1327 15.077 20.3125 15.0026 20.5 15.0026C20.6875 15.0026 20.8673 15.077 21 15.2095L26.793 21.0025C26.9255 21.1352 26.9999 21.315 26.9999 21.5025C26.9999 21.69 26.9255 21.8698 26.793 22.0025ZM26.793 19.0025L26.5 19.2955L22.707 15.5025L23 15.2095C23.1348 15.0811 23.3138 15.0095 23.5 15.0095C23.6862 15.0095 23.8652 15.0811 24 15.2095L26.793 18.0025C26.9255 18.1352 26.9999 18.315 26.9999 18.5025C26.9999 18.69 26.9255 18.8698 26.793 19.0025ZM26.5 16.2955L25.707 15.5025L26.207 15.0025L27 15.7955L26.5 16.2955Z" fill="#FDFDFD"/>
</svg>
