<svg width="30" height="22" viewBox="0 0 30 22" fill="none" xmlns="http://www.w3.org/2000/svg">
<path d="M15 3.00004C13.4177 3.00004 11.871 3.46923 10.5554 4.34828C9.23985 5.22733 8.21447 6.47676 7.60896 7.93857C7.00346 9.40038 6.84504 11.0089 7.15372 12.5608C7.4624 14.1126 8.22433 15.5381 9.34315 16.6569C10.462 17.7757 11.8874 18.5376 13.4393 18.8463C14.9911 19.155 16.5997 18.9966 18.0615 18.3911C19.5233 17.7856 20.7727 16.7602 21.6518 15.4446C22.5308 14.129 23 12.5823 23 11C22.9976 8.87903 22.154 6.84559 20.6542 5.34581C19.1544 3.84604 17.121 3.00242 15 3.00004ZM15 4.00004C16.1437 4.00042 17.2698 4.2811 18.2799 4.81752C19.29 5.35394 20.1532 6.12974 20.794 7.07704L19.0525 8.08304C18.5913 7.43863 17.9831 6.9135 17.2783 6.55123C16.5735 6.18895 15.7924 5.99997 15 5.99997C14.2076 5.99997 13.4265 6.18895 12.7217 6.55123C12.0169 6.9135 11.4087 7.43863 10.9475 8.08304L9.206 7.07704C9.84681 6.12974 10.71 5.35394 11.7201 4.81752C12.7302 4.2811 13.8563 4.00042 15 4.00004ZM15 15C14.2089 15 13.4355 14.7654 12.7777 14.3259C12.1199 13.8864 11.6072 13.2617 11.3045 12.5308C11.0017 11.7999 10.9225 10.9956 11.0769 10.2197C11.2312 9.44375 11.6122 8.73102 12.1716 8.17161C12.731 7.6122 13.4437 7.23124 14.2196 7.07689C14.9956 6.92255 15.7998 7.00177 16.5307 7.30452C17.2616 7.60727 17.8864 8.11996 18.3259 8.77775C18.7654 9.43555 19 10.2089 19 11C18.9987 12.0605 18.5768 13.0771 17.827 13.827C17.0771 14.5769 16.0605 14.9987 15 15ZM8 11C8.00116 9.94131 8.24436 8.89687 8.711 7.94654L10.446 8.94804C10.1185 9.67024 9.96789 10.4601 10.0066 11.2521C10.0453 12.0442 10.2721 12.8156 10.6684 13.5024C11.0647 14.1893 11.619 14.7718 12.2853 15.2017C12.9517 15.6316 13.7109 15.8966 14.5 15.9745V17.9745C12.7362 17.8473 11.0858 17.0576 9.88019 15.7639C8.67454 14.4702 8.00286 12.7684 8 11ZM15.5 17.975V15.975C16.2892 15.8972 17.0486 15.6323 17.715 15.2024C18.3815 14.7725 18.9359 14.1899 19.3322 13.503C19.7286 12.816 19.9555 12.0445 19.9941 11.2524C20.0328 10.4602 19.8821 9.6703 19.5545 8.94804L21.2895 7.94654C21.7925 8.97392 22.0352 10.1092 21.9961 11.2525C21.9571 12.3957 21.6375 13.5118 21.0656 14.5025C20.4936 15.4932 19.6869 16.328 18.7163 16.9334C17.7458 17.5389 16.6412 17.8969 15.5 17.975ZM7 5.50004V0.500037C7 0.367428 6.94732 0.240252 6.85355 0.146483C6.75979 0.0527152 6.63261 3.66622e-05 6.5 3.66622e-05C6.36739 3.66622e-05 6.24021 0.0527152 6.14645 0.146483C6.05268 0.240252 6 0.367428 6 0.500037V4.50004H5V0.500037C5 0.367428 4.94732 0.240252 4.85355 0.146483C4.75979 0.0527152 4.63261 3.66622e-05 4.5 3.66622e-05C4.36739 3.66622e-05 4.24021 0.0527152 4.14645 0.146483C4.05268 0.240252 4 0.367428 4 0.500037V4.50004H3V0.500037C3 0.367428 2.94732 0.240252 2.85355 0.146483C2.75979 0.0527152 2.63261 3.66622e-05 2.5 3.66622e-05C2.36739 3.66622e-05 2.24021 0.0527152 2.14645 0.146483C2.05268 0.240252 2 0.367428 2 0.500037V4.50004H1V0.500037C1 0.367428 0.947322 0.240252 0.853553 0.146483C0.759785 0.0527152 0.632608 3.66622e-05 0.5 3.66622e-05C0.367392 3.66622e-05 0.240215 0.0527152 0.146447 0.146483C0.0526784 0.240252 0 0.367428 0 0.500037V5.50004C0.00123605 6.2119 0.219323 6.90649 0.625215 7.4913C1.03111 8.07611 1.60554 8.52338 2.272 8.77354L1.591 19.974C1.57519 20.2344 1.61283 20.4953 1.7016 20.7407C1.79037 20.986 1.92839 21.2106 2.10718 21.4006C2.28597 21.5906 2.50175 21.742 2.74123 21.8455C2.98071 21.949 3.23884 22.0024 3.49973 22.0024C3.76063 22.0025 4.01877 21.9491 4.25828 21.8457C4.49779 21.7422 4.7136 21.5909 4.89244 21.4009C5.07128 21.211 5.20937 20.9864 5.2982 20.7411C5.38704 20.4958 5.42474 20.235 5.409 19.9745L4.728 8.77354C5.39446 8.52338 5.96889 8.07611 6.37478 7.4913C6.78068 6.90649 6.99876 6.2119 7 5.50004ZM4.411 20.0355C4.41917 20.1591 4.40167 20.2831 4.35959 20.3996C4.31751 20.5161 4.25177 20.6227 4.1665 20.7125C4.07935 20.8007 3.97556 20.8708 3.86116 20.9185C3.74675 20.9663 3.62399 20.9909 3.5 20.9909C3.37601 20.9909 3.25325 20.9663 3.13884 20.9185C3.02444 20.8708 2.92065 20.8007 2.8335 20.7125C2.7481 20.6226 2.68225 20.516 2.64008 20.3994C2.59791 20.2828 2.58035 20.1588 2.5885 20.035L3.261 8.98804C3.3405 8.99304 3.4195 9.00004 3.5 9.00004C3.5805 9.00004 3.66 8.99354 3.739 8.98804L4.411 20.0355ZM3.5 8.00004C2.8372 7.99924 2.20178 7.7356 1.73311 7.26693C1.26444 6.79826 1.00079 6.16283 1 5.50004H6C5.99921 6.16283 5.73556 6.79826 5.26689 7.26693C4.79822 7.7356 4.1628 7.99924 3.5 8.00004ZM8.108 3.07404C8.06724 3.02253 8.03703 2.9635 8.0191 2.90032C8.00116 2.83713 7.99584 2.77104 8.00346 2.7058C8.01108 2.64056 8.03147 2.57746 8.06348 2.52011C8.09548 2.46276 8.13848 2.41227 8.19 2.37154C10.1245 0.830064 12.5265 -0.00638153 15 3.66622e-05C17.5531 0.00139076 20.0265 0.889299 21.9975 2.51204C22.0998 2.59644 22.1644 2.71803 22.1771 2.85006C22.1897 2.98208 22.1494 3.11373 22.065 3.21604C21.9806 3.31834 21.859 3.38293 21.727 3.39559C21.595 3.40825 21.4633 3.36794 21.361 3.28354C19.5694 1.80821 17.3209 1.00104 15 1.00004C12.7515 0.994402 10.5682 1.75503 8.81 3.15654C8.75851 3.19725 8.69949 3.22742 8.63633 3.24531C8.57317 3.2632 8.5071 3.26846 8.4419 3.2608C8.3767 3.25314 8.31365 3.2327 8.25636 3.20065C8.19907 3.16861 8.14865 3.12558 8.108 3.07404ZM23.549 17.1045C23.653 17.1867 23.7201 17.3068 23.7356 17.4385C23.751 17.5701 23.7136 17.7025 23.6315 17.8065C22.6041 19.1134 21.2934 20.17 19.7982 20.8964C18.3029 21.6229 16.6623 22.0004 14.9999 22.0003C13.3375 22.0003 11.6968 21.6227 10.2017 20.8962C8.70647 20.1696 7.3958 19.113 6.3685 17.806C6.28628 17.7019 6.24879 17.5694 6.26426 17.4377C6.27973 17.306 6.3469 17.1858 6.451 17.1035C6.5551 17.0213 6.68759 16.9838 6.81934 16.9993C6.95108 17.0148 7.07128 17.0819 7.1535 17.186C8.08711 18.3744 9.27845 19.3352 10.6376 19.9959C11.9968 20.6566 13.4883 21 14.9995 21.0001C16.5108 21.0002 18.0023 20.657 19.3615 19.9965C20.7208 19.3359 21.9122 18.3753 22.846 17.187C22.9284 17.083 23.0486 17.0159 23.1804 17.0004C23.3122 16.9849 23.4448 17.0224 23.549 17.1045ZM30 4.50004C30 2.01904 28.43 3.66622e-05 26.5 3.66622e-05C24.57 3.66622e-05 23 2.01904 23 4.50004C23 6.42654 23.9485 8.06904 25.275 8.71004L24.591 19.974C24.5752 20.2344 24.6128 20.4953 24.7016 20.7407C24.7904 20.986 24.9284 21.2106 25.1072 21.4006C25.286 21.5906 25.5017 21.742 25.7412 21.8455C25.9807 21.949 26.2388 22.0024 26.4997 22.0024C26.7606 22.0025 27.0188 21.9491 27.2583 21.8457C27.4978 21.7422 27.7136 21.5909 27.8924 21.4009C28.0713 21.211 28.2094 20.9864 28.2982 20.7411C28.387 20.4958 28.4247 20.235 28.409 19.9745L27.7255 8.70954C29.0515 8.07004 30 6.42654 30 4.50004ZM27.411 20.0355C27.4192 20.1591 27.4017 20.2831 27.3596 20.3996C27.3175 20.5161 27.2518 20.6227 27.1665 20.7125C27.0794 20.8007 26.9756 20.8708 26.8612 20.9185C26.7467 20.9663 26.624 20.9909 26.5 20.9909C26.376 20.9909 26.2533 20.9663 26.1388 20.9185C26.0244 20.8708 25.9206 20.8007 25.8335 20.7125C25.7481 20.6226 25.6822 20.516 25.6401 20.3994C25.5979 20.2828 25.5804 20.1588 25.5885 20.035L26.26 8.98503C26.34 8.99203 26.4195 9.00054 26.5005 9.00054C26.5815 9.00054 26.661 8.99203 26.7405 8.98503L27.411 20.0355ZM26.5 8.00004C25.1215 8.00004 24 6.43004 24 4.50004C24 2.57004 25.1215 1.00004 26.5 1.00004C27.8785 1.00004 29 2.57004 29 4.50004C29 6.43004 27.8785 8.00004 26.5 8.00004ZM16.8535 9.14653C16.9472 9.2403 16.9999 9.36745 16.9999 9.50004C16.9999 9.63262 16.9472 9.75977 16.8535 9.85354L13.8535 12.8535C13.7592 12.9446 13.6329 12.995 13.5018 12.9939C13.3707 12.9927 13.2453 12.9401 13.1526 12.8474C13.0599 12.7547 13.0073 12.6293 13.0062 12.4982C13.005 12.3671 13.0554 12.2408 13.1465 12.1465L16.1465 9.14653C16.2403 9.0528 16.3674 9.00014 16.5 9.00014C16.6326 9.00014 16.7597 9.0528 16.8535 9.14653ZM13 9.50004C13 9.40114 13.0293 9.30447 13.0843 9.22225C13.1392 9.14003 13.2173 9.07594 13.3087 9.0381C13.4 9.00025 13.5006 8.99035 13.5975 9.00964C13.6945 9.02894 13.7836 9.07656 13.8536 9.14648C13.9235 9.21641 13.9711 9.3055 13.9904 9.40249C14.0097 9.49948 13.9998 9.60001 13.9619 9.69138C13.9241 9.78274 13.86 9.86083 13.7778 9.91577C13.6956 9.97071 13.5989 10 13.5 10C13.3674 10 13.2402 9.94736 13.1464 9.85359C13.0527 9.75982 13 9.63264 13 9.50004ZM17 12.5C17 12.5989 16.9707 12.6956 16.9157 12.7778C16.8608 12.86 16.7827 12.9241 16.6913 12.962C16.6 12.9998 16.4994 13.0097 16.4025 12.9904C16.3055 12.9711 16.2164 12.9235 16.1464 12.8536C16.0765 12.7837 16.0289 12.6946 16.0096 12.5976C15.9903 12.5006 16.0002 12.4001 16.0381 12.3087C16.0759 12.2173 16.14 12.1392 16.2222 12.0843C16.3044 12.0294 16.4011 12 16.5 12C16.6326 12 16.7598 12.0527 16.8536 12.1465C16.9473 12.2402 17 12.3674 17 12.5Z" fill="white"/>
</svg>
