<svg width="27" height="29" viewBox="0 0 27 29" fill="none" xmlns="http://www.w3.org/2000/svg">
<path d="M12.4538 15.3333C8.22711 15.3333 4.78711 11.8933 4.78711 7.66667C4.78711 3.44 8.22711 0 12.4538 0C16.6804 0 20.1204 3.44 20.1204 7.66667C20.1204 11.8933 16.6804 15.3333 12.4538 15.3333ZM12.4538 2C9.33378 2 6.78711 4.54667 6.78711 7.66667C6.78711 10.7867 9.33378 13.3333 12.4538 13.3333C15.5738 13.3333 18.1204 10.7867 18.1204 7.66667C18.1204 4.54667 15.5738 2 12.4538 2ZM17.5471 28.6667C17.0404 28.6667 16.5604 28.48 16.2138 28.1333C15.8004 27.72 15.6138 27.12 15.7071 26.4933L15.9604 24.6933C16.0271 24.2267 16.3071 23.68 16.6404 23.3333L21.3604 18.6133C23.2538 16.72 24.9204 17.8 25.7338 18.6133C26.4271 19.3067 26.7871 20.0533 26.7871 20.8C26.7871 21.56 26.4404 22.2667 25.7338 22.9733L21.0138 27.6933C20.6804 28.0267 20.1204 28.3067 19.6538 28.3733L17.8538 28.6267C17.7471 28.6533 17.6538 28.6667 17.5471 28.6667ZM23.5338 19.56C23.2938 19.56 23.0804 19.72 22.7738 20.0267L18.0538 24.7467C17.9998 24.8121 17.9631 24.89 17.9471 24.9733L17.7071 26.64L19.3738 26.4C19.4271 26.3867 19.5604 26.32 19.6004 26.28L24.3204 21.56C24.5338 21.3467 24.7871 21.04 24.7871 20.8C24.7871 20.6 24.6271 20.32 24.3204 20.0267C24.0004 19.7067 23.7604 19.56 23.5338 19.56Z" fill="white"/>
<path d="M24.3467 23.9606C24.2533 23.9606 24.16 23.9473 24.08 23.9207C23.2101 23.6737 22.4177 23.2085 21.7783 22.569C21.1389 21.9296 20.6736 21.1373 20.4267 20.2673C20.28 19.734 20.5867 19.1873 21.12 19.0407C21.6533 18.894 22.2 19.2006 22.3467 19.734C22.6533 20.8273 23.52 21.694 24.6133 22.0007C24.8452 22.0659 25.0457 22.2127 25.1778 22.4142C25.31 22.6156 25.3649 22.8579 25.3324 23.0966C25.2999 23.3353 25.1823 23.5542 25.0011 23.713C24.82 23.8718 24.5876 23.9597 24.3467 23.9606ZM1 28.6673C0.453333 28.6673 0 28.214 0 27.6673C0 21.974 5.58667 17.334 12.4533 17.334C13.9067 17.334 15.3467 17.5473 16.6933 17.9473C17.2267 18.1073 17.52 18.6673 17.36 19.1873C17.2 19.7207 16.64 20.014 16.12 19.854C14.9467 19.5073 13.72 19.3207 12.4533 19.3207C6.69333 19.3207 2 23.054 2 27.654C2 28.214 1.54667 28.6673 1 28.6673Z" fill="white"/>
</svg>
