<svg width="30" height="30" viewBox="0 0 30 30" fill="none" xmlns="http://www.w3.org/2000/svg">
<path d="M6.8625 21.5293L4.66783 23.7253L3.8065 22.8627C3.68132 22.7375 3.51154 22.6672 3.3345 22.6672C3.15747 22.6672 2.98768 22.7375 2.8625 22.8627C2.73732 22.9878 2.66699 23.1576 2.66699 23.3347C2.66699 23.5117 2.73732 23.6815 2.8625 23.8067L4.19583 25.14C4.25776 25.2021 4.33133 25.2513 4.41232 25.2849C4.49332 25.3186 4.58014 25.3359 4.66783 25.3359C4.75552 25.3359 4.84235 25.3186 4.92335 25.2849C5.00434 25.2513 5.07791 25.2021 5.13983 25.14L7.8065 22.4733C7.93168 22.3481 8.00201 22.1784 8.00201 22.0013C8.00201 21.8243 7.93168 21.6545 7.8065 21.5293C7.68132 21.4041 7.51154 21.3338 7.3345 21.3338C7.15747 21.3338 6.98768 21.4041 6.8625 21.5293ZM6.8625 14.8627L4.66783 17.0587L3.8065 16.196C3.74452 16.134 3.67093 16.0848 3.58995 16.0513C3.50896 16.0178 3.42216 16.0005 3.3345 16.0005C3.24684 16.0005 3.16004 16.0178 3.07906 16.0513C2.99807 16.0848 2.92448 16.134 2.8625 16.196C2.80052 16.258 2.75135 16.3316 2.7178 16.4126C2.68426 16.4935 2.66699 16.5803 2.66699 16.668C2.66699 16.7557 2.68426 16.8425 2.7178 16.9234C2.75135 17.0044 2.80052 17.078 2.8625 17.14L4.19583 18.4733C4.25776 18.5354 4.33133 18.5847 4.41232 18.6183C4.49332 18.6519 4.58014 18.6692 4.66783 18.6692C4.75552 18.6692 4.84235 18.6519 4.92335 18.6183C5.00434 18.5847 5.07791 18.5354 5.13983 18.4733L7.8065 15.8067C7.93168 15.6815 8.00201 15.5117 8.00201 15.3347C8.00201 15.1576 7.93168 14.9878 7.8065 14.8627C7.68132 14.7375 7.51154 14.6672 7.3345 14.6672C7.15747 14.6672 6.98768 14.7375 6.8625 14.8627ZM10.0012 16.0013H15.3345C15.5113 16.0013 15.6809 15.9311 15.8059 15.8061C15.9309 15.681 16.0012 15.5115 16.0012 15.3347C16.0012 15.1579 15.9309 14.9883 15.8059 14.8633C15.6809 14.7382 15.5113 14.668 15.3345 14.668H10.0012C9.82436 14.668 9.65479 14.7382 9.52976 14.8633C9.40474 14.9883 9.3345 15.1579 9.3345 15.3347C9.3345 15.5115 9.40474 15.681 9.52976 15.8061C9.65479 15.9311 9.82436 16.0013 10.0012 16.0013ZM6.8625 8.196L4.66783 10.392L3.8065 9.52933C3.74452 9.46735 3.67093 9.41818 3.58995 9.38463C3.50896 9.35109 3.42216 9.33382 3.3345 9.33382C3.24684 9.33382 3.16004 9.35109 3.07906 9.38463C2.99807 9.41818 2.92448 9.46735 2.8625 9.52933C2.80052 9.59131 2.75135 9.6649 2.7178 9.74589C2.68426 9.82687 2.66699 9.91367 2.66699 10.0013C2.66699 10.089 2.68426 10.1758 2.7178 10.2568C2.75135 10.3378 2.80052 10.4113 2.8625 10.4733L4.19583 11.8067C4.25776 11.8687 4.33133 11.918 4.41232 11.9516C4.49332 11.9852 4.58014 12.0025 4.66783 12.0025C4.75552 12.0025 4.84235 11.9852 4.92335 11.9516C5.00434 11.918 5.07791 11.8687 5.13983 11.8067L7.8065 9.14C7.93168 9.01482 8.00201 8.84503 8.00201 8.668C8.00201 8.49096 7.93168 8.32118 7.8065 8.196C7.68132 8.07082 7.51154 8.00049 7.3345 8.00049C7.15747 8.00049 6.98768 8.07082 6.8625 8.196ZM10.0012 9.33466H20.6678C20.8446 9.33466 21.0142 9.26443 21.1392 9.1394C21.2643 9.01438 21.3345 8.84481 21.3345 8.668C21.3345 8.49119 21.2643 8.32162 21.1392 8.19659C21.0142 8.07157 20.8446 8.00133 20.6678 8.00133H10.0012C9.82436 8.00133 9.65479 8.07157 9.52976 8.19659C9.40474 8.32162 9.3345 8.49119 9.3345 8.668C9.3345 8.84481 9.40474 9.01438 9.52976 9.1394C9.65479 9.26443 9.82436 9.33466 10.0012 9.33466ZM10.0012 12.0013H20.6678C20.8446 12.0013 21.0142 11.9311 21.1392 11.8061C21.2643 11.681 21.3345 11.5115 21.3345 11.3347C21.3345 11.1579 21.2643 10.9883 21.1392 10.8633C21.0142 10.7382 20.8446 10.668 20.6678 10.668H10.0012C9.82436 10.668 9.65479 10.7382 9.52976 10.8633C9.40474 10.9883 9.3345 11.1579 9.3345 11.3347C9.3345 11.5115 9.40474 11.681 9.52976 11.8061C9.65479 11.9311 9.82436 12.0013 10.0012 12.0013Z" fill="#FCFCFC"/>
<path d="M24 16.1333V5.25467C23.9989 4.56861 23.7259 3.91096 23.2408 3.42584C22.7557 2.94073 22.0981 2.66772 21.412 2.66667H18.6667V1.70667C18.6635 1.255 18.4827 0.822728 18.1633 0.503344C17.8439 0.183961 17.4117 0.00314274 16.96 0H7.04C6.58834 0.00314274 6.15606 0.183961 5.83668 0.503344C5.51729 0.822728 5.33648 1.255 5.33333 1.70667V2.66667H2.58667C1.90086 2.66737 1.24334 2.94012 0.758397 3.42506C0.273456 3.91 0.00070593 4.56752 0 5.25333V26.7467C0.00070593 27.4325 0.273456 28.09 0.758397 28.5749C1.24334 29.0599 1.90086 29.3326 2.58667 29.3333H22.6667C24.1101 29.3391 25.5154 28.8706 26.6667 28C27.6949 27.2292 28.4785 26.1777 28.9231 24.972C29.3677 23.7663 29.4543 22.4577 29.1726 21.2039C28.8908 19.9501 28.2527 18.8045 27.335 17.9049C26.4173 17.0053 25.2592 16.3901 24 16.1333ZM6.66667 1.70667C6.66871 1.60829 6.7087 1.51452 6.77827 1.44494C6.84785 1.37537 6.94163 1.33538 7.04 1.33333H16.96C17.0584 1.33538 17.1522 1.37537 17.2217 1.44494C17.2913 1.51452 17.3313 1.60829 17.3333 1.70667V3.62667C17.3313 3.72504 17.2913 3.81882 17.2217 3.88839C17.1522 3.95797 17.0584 3.99796 16.96 4H7.04C6.94163 3.99796 6.84785 3.95797 6.77827 3.88839C6.7087 3.81882 6.66871 3.72504 6.66667 3.62667V1.70667ZM2.58667 28C2.42203 28.0002 2.25897 27.9679 2.10683 27.905C1.95469 27.842 1.81645 27.7497 1.70003 27.6333C1.58362 27.5169 1.4913 27.3786 1.42838 27.2265C1.36546 27.0744 1.33316 26.9113 1.33333 26.7467V5.25333C1.33316 5.08869 1.36546 4.92564 1.42838 4.7735C1.4913 4.62136 1.58362 4.48312 1.70003 4.3667C1.81645 4.25028 1.95469 4.15797 2.10683 4.09505C2.25897 4.03212 2.42203 3.99982 2.58667 4H5.38667C5.46812 4.37786 5.6767 4.71635 5.97758 4.959C6.27847 5.20165 6.65346 5.33378 7.04 5.33333H16.96C17.3465 5.33378 17.7215 5.20165 18.0224 4.959C18.3233 4.71635 18.5319 4.37786 18.6133 4H21.4133C21.7458 4.00071 22.0643 4.13316 22.2993 4.36834C22.5342 4.60352 22.6663 4.92225 22.6667 5.25467V16C21.2675 16 19.9037 16.4403 18.7686 17.2584C17.6335 18.0765 16.7846 19.2311 16.3421 20.5585C15.8996 21.8859 15.886 23.3189 16.3032 24.6544C16.7204 25.99 17.5473 27.1605 18.6667 28H2.58667ZM22.6667 28C21.6118 28 20.5807 27.6872 19.7036 27.1012C18.8266 26.5151 18.143 25.6822 17.7393 24.7076C17.3356 23.7331 17.23 22.6608 17.4358 21.6262C17.6416 20.5916 18.1496 19.6413 18.8954 18.8954C19.6413 18.1496 20.5916 17.6416 21.6262 17.4358C22.6608 17.23 23.7331 17.3356 24.7076 17.7393C25.6822 18.143 26.5151 18.8266 27.1012 19.7036C27.6872 20.5807 28 21.6118 28 22.6667C28 24.0812 27.4381 25.4377 26.4379 26.4379C25.4377 27.4381 24.0812 28 22.6667 28Z" fill="#FCFCFC"/>
<path d="M23.334 22.3918V20.0011C23.334 19.8243 23.2637 19.6548 23.1387 19.5297C23.0137 19.4047 22.8441 19.3345 22.6673 19.3345C22.4905 19.3345 22.3209 19.4047 22.1959 19.5297C22.0709 19.6548 22.0007 19.8243 22.0007 20.0011V22.6678C22.0005 22.7554 22.0176 22.8422 22.051 22.9232C22.0844 23.0042 22.1334 23.0778 22.1953 23.1398L23.5287 24.4731C23.6538 24.5983 23.8236 24.6686 24.0007 24.6686C24.1777 24.6686 24.3475 24.5983 24.4727 24.4731C24.5978 24.348 24.6682 24.1782 24.6682 24.0011C24.6682 23.8241 24.5978 23.6543 24.4727 23.5291L23.334 22.3918ZM15.334 17.3345H10.0007C9.82384 17.3345 9.65427 17.4047 9.52925 17.5297C9.40422 17.6548 9.33398 17.8243 9.33398 18.0011C9.33398 18.178 9.40422 18.3475 9.52925 18.4725C9.65427 18.5976 9.82384 18.6678 10.0007 18.6678H15.334C15.5108 18.6678 15.6804 18.5976 15.8054 18.4725C15.9304 18.3475 16.0007 18.178 16.0007 18.0011C16.0007 17.8243 15.9304 17.6548 15.8054 17.5297C15.6804 17.4047 15.5108 17.3345 15.334 17.3345ZM14.0007 24.0011H10.0007C9.82384 24.0011 9.65427 24.0714 9.52925 24.1964C9.40422 24.3214 9.33398 24.491 9.33398 24.6678C9.33398 24.8446 9.40422 25.0142 9.52925 25.1392C9.65427 25.2642 9.82384 25.3345 10.0007 25.3345H14.0007C14.1775 25.3345 14.347 25.2642 14.4721 25.1392C14.5971 25.0142 14.6673 24.8446 14.6673 24.6678C14.6673 24.491 14.5971 24.3214 14.4721 24.1964C14.347 24.0714 14.1775 24.0011 14.0007 24.0011ZM14.0007 21.3345H10.0007C9.82384 21.3345 9.65427 21.4047 9.52925 21.5297C9.40422 21.6548 9.33398 21.8243 9.33398 22.0011C9.33398 22.178 9.40422 22.3475 9.52925 22.4725C9.65427 22.5976 9.82384 22.6678 10.0007 22.6678H14.0007C14.1775 22.6678 14.347 22.5976 14.4721 22.4725C14.5971 22.3475 14.6673 22.178 14.6673 22.0011C14.6673 21.8243 14.5971 21.6548 14.4721 21.5297C14.347 21.4047 14.1775 21.3345 14.0007 21.3345Z" fill="#FCFCFC"/>
</svg>
