<svg width="24" height="24" viewBox="0 0 24 24" fill="none" xmlns="http://www.w3.org/2000/svg">
<path d="M22.5262 9.68874H22.1581V8.68772C22.1581 7.53343 21.219 6.59438 20.0648 6.59438H19.5426C19.321 5.77182 18.569 5.16455 17.6774 5.16455C16.6122 5.16455 15.7456 6.03108 15.7456 7.09627V10.293H8.25436V7.09627C8.25436 6.03108 7.38778 5.16455 6.32264 5.16455C5.43108 5.16455 4.67902 5.77182 4.45744 6.59438H3.93525C2.78095 6.59438 1.84186 7.53343 1.84186 8.68772V9.68874H1.47375C0.661125 9.68874 0 10.3499 0 11.1625V12.8317C0 13.6443 0.661125 14.3054 1.47375 14.3054H1.84191V15.3117C1.84191 16.466 2.781 17.4051 3.9353 17.4051H4.45748C4.67906 18.2276 5.43113 18.8349 6.32269 18.8349C7.38788 18.8349 8.25441 17.9684 8.25441 16.9032V13.7064H14.6762C14.8704 13.7064 15.0278 13.5491 15.0278 13.3549C15.0278 13.1607 14.8704 13.0033 14.6762 13.0033H8.25436V10.9961H15.7456V16.9032C15.7456 17.9684 16.6122 18.8349 17.6774 18.8349C18.569 18.8349 19.321 18.2277 19.5426 17.4051H20.0648C21.219 17.4051 22.1581 16.4661 22.1581 15.3118V14.3054H22.5262C23.3389 14.3054 24 13.6443 24 12.8317V11.1625C24 10.3499 23.3389 9.68874 22.5262 9.68874ZM1.84191 13.6023H1.47375C1.04883 13.6023 0.703125 13.2566 0.703125 12.8317V11.1625C0.703125 10.7376 1.04883 10.3919 1.47375 10.3919H1.84191V13.6023ZM7.55123 16.9032C7.55123 17.5807 7.00008 18.1318 6.32264 18.1318C5.64516 18.1318 5.09405 17.5807 5.09405 16.9032V9.80991C5.09405 9.71667 5.05701 9.62725 4.99108 9.56132C4.92515 9.49539 4.83572 9.45835 4.74248 9.45835C4.64924 9.45835 4.55982 9.49539 4.49389 9.56132C4.42796 9.62725 4.39092 9.71667 4.39092 9.80991V16.702H3.9353C3.1687 16.702 2.54503 16.0784 2.54503 15.3118V8.68768C2.54503 7.92108 3.1687 7.29746 3.9353 7.29746H4.39092V8.25239C4.39092 8.34563 4.42796 8.43506 4.49389 8.50099C4.55982 8.56692 4.64924 8.60396 4.74248 8.60396C4.83572 8.60396 4.92515 8.56692 4.99108 8.50099C5.05701 8.43506 5.09405 8.34563 5.09405 8.25239V7.09622C5.09405 6.41879 5.6452 5.86763 6.32264 5.86763C7.00012 5.86763 7.55123 6.41879 7.55123 7.09622V16.9032ZM18.906 16.9032C18.906 17.5807 18.3548 18.1318 17.6774 18.1318C16.9999 18.1318 16.4487 17.5807 16.4487 16.9032V7.09622C16.4487 6.41879 16.9999 5.86763 17.6774 5.86763C18.3548 5.86763 18.906 6.41879 18.906 7.09622V16.9032ZM21.455 15.3118C21.455 16.0783 20.8313 16.702 20.0648 16.702H19.6091V7.29746H20.0648C20.8313 7.29746 21.455 7.92113 21.455 8.68768V15.3118ZM23.2969 12.8317C23.2969 13.2566 22.9512 13.6023 22.5262 13.6023H22.1581V10.3919H22.5262C22.9512 10.3919 23.2969 10.7376 23.2969 11.1625V12.8317Z" fill="white"/>
</svg>
