<svg width="45" height="45" viewBox="0 0 45 45" fill="none" xmlns="http://www.w3.org/2000/svg">
<g clip-path="url(#clip0_340_3698)">
<path d="M24.5621 1.875C20.0279 1.89707 15.629 3.42266 12.0548 6.21277C8.48057 9.00287 5.93287 12.8998 4.81086 17.2931L3.43836 15.2175C3.30843 15.0002 3.13583 14.8115 2.93097 14.6627C2.72612 14.5139 2.49325 14.4081 2.24641 14.3518C1.99957 14.2954 1.74388 14.2896 1.49475 14.3348C1.24562 14.3799 1.00821 14.4751 0.796848 14.6145C0.585483 14.7539 0.404538 14.9346 0.264925 15.1458C0.125311 15.357 0.029922 15.5943 -0.015491 15.8434C-0.0609041 16.0925 -0.0553999 16.3482 0.000689488 16.5951C0.0567789 16.842 0.162291 17.075 0.310865 17.28L4.43586 23.5313C4.7224 23.9322 5.14486 24.2154 5.62462 24.3281C6.11449 24.4253 6.62296 24.3278 7.04212 24.0563L13.2296 19.8881C13.443 19.7549 13.6273 19.5801 13.7717 19.3742C13.9161 19.1682 14.0176 18.9353 14.0701 18.6894C14.1226 18.4434 14.1252 18.1894 14.0775 17.9424C14.0298 17.6955 13.933 17.4606 13.7927 17.2519C13.6524 17.0431 13.4715 16.8647 13.2608 16.7273C13.0502 16.5899 12.814 16.4963 12.5664 16.452C12.3188 16.4078 12.0648 16.4138 11.8196 16.4697C11.5744 16.5256 11.3429 16.6303 11.139 16.7775L8.32461 18.675C9.07364 15.6345 10.6622 12.8657 12.9091 10.6846C15.1561 8.50353 17.9708 6.99792 21.0322 6.33959C24.0937 5.68125 27.2785 5.8967 30.2234 6.96136C33.1683 8.02601 35.7546 9.89699 37.6873 12.3608C39.62 14.8247 40.8212 17.7822 41.1539 20.8959C41.4866 24.0096 40.9374 27.1541 39.5689 29.9706C38.2005 32.7872 36.0678 35.1624 33.4144 36.8253C30.761 38.4881 27.6935 39.3716 24.5621 39.375C21.8778 39.3678 19.2348 38.7125 16.858 37.4648C14.4812 36.2171 12.4408 34.414 10.9102 32.2088C10.7732 31.9983 10.5952 31.8175 10.3869 31.6771C10.1786 31.5367 9.9442 31.4396 9.69764 31.3916C9.45109 31.3435 9.1974 31.3455 8.95163 31.3974C8.70586 31.4493 8.47303 31.5501 8.26695 31.6937C8.06088 31.8373 7.88576 32.0209 7.752 32.2335C7.61824 32.4461 7.52856 32.6834 7.4883 32.9314C7.44803 33.1793 7.45799 33.4328 7.51759 33.6768C7.57719 33.9209 7.68521 34.1504 7.83524 34.3519C10.3235 37.9391 13.8968 40.6335 18.03 42.0391C22.1632 43.4448 26.6383 43.4876 30.7976 42.1611C34.957 40.8347 38.5811 38.2091 41.1374 34.6701C43.6938 31.1311 45.0475 26.8654 44.9996 22.5C45.0181 17.0567 42.8767 11.8283 39.0453 7.96179C35.214 4.09524 30.0054 1.90625 24.5621 1.875Z" fill="#FF6D00"/>
<path d="M24.375 11.1562C23.8777 11.1562 23.4008 11.3538 23.0492 11.7054C22.6975 12.0571 22.5 12.534 22.5 13.0313V22.5C22.508 22.9956 22.7044 23.4696 23.0494 23.8256L28.6744 29.5013C29.0274 29.8487 29.5021 30.0445 29.9973 30.0469C30.4926 30.0494 30.9692 29.8583 31.3256 29.5144C31.6786 29.1643 31.8781 28.6883 31.8802 28.1911C31.8823 27.6939 31.6869 27.2162 31.3369 26.8631L26.25 21.7294V13.0313C26.25 12.534 26.0525 12.0571 25.7008 11.7054C25.3492 11.3538 24.8723 11.1562 24.375 11.1562Z" fill="#FF6D00"/>
</g>
<defs>
<clipPath id="clip0_340_3698">
<rect width="45" height="45" fill="white"/>
</clipPath>
</defs>
</svg>
