<svg width="20" height="20" viewBox="0 0 20 20" fill="none" xmlns="http://www.w3.org/2000/svg">
<path d="M4.502 0.75V3M15.002 0.75V3M0.75 16.5V5.247C0.75 4.65026 0.987053 4.07797 1.40901 3.65601C1.83097 3.23405 2.40326 2.997 3 2.997H16.5C17.0967 2.997 17.669 3.23405 18.091 3.65601C18.5129 4.07797 18.75 4.65026 18.75 5.247V16.498M18.75 16.498C18.75 17.0947 18.5129 17.667 18.091 18.089C17.669 18.5109 17.0967 18.748 16.5 18.748H3C2.40326 18.748 1.83097 18.5109 1.40901 18.089C0.987053 17.667 0.75 17.0947 0.75 16.498V8.998C0.75 8.40126 0.987053 7.82897 1.40901 7.40701C1.83097 6.98505 2.40326 6.748 3 6.748H16.5C17.0967 6.748 17.669 6.98505 18.091 7.40701C18.5129 7.82897 18.75 8.40126 18.75 8.998V16.498ZM12 10.498H14.25M5.25 12.748H9.75M9.752 10.498H9.757V10.504H9.752V10.498ZM9.751 14.998H9.757V15.004H9.751V14.998ZM7.501 14.999H7.506V15.005H7.502V14.999H7.501ZM5.251 14.999H5.256V15.004H5.25V14.999H5.251ZM12.001 12.752H12.006V12.757H12.001V12.752ZM12.001 14.999H12.007V15.005H12.001V14.999ZM14.251 12.751H14.257V12.756H14.252L14.251 12.751Z" stroke="white" stroke-width="1.5" stroke-linecap="round" stroke-linejoin="round"/>
</svg>
