<svg width="20" height="20" viewBox="0 0 20 20" fill="none" xmlns="http://www.w3.org/2000/svg">
<g clip-path="url(#clip0_152_2090)">
<path d="M9.99835 19.8256C9.99769 19.8256 9.99769 19.8256 9.99835 19.8256C7.36735 19.8256 4.89885 18.8051 3.04635 16.9526C1.19385 15.1001 0.172852 12.6306 0.172852 10.0006C0.172852 7.37057 1.19335 4.90207 3.04635 3.04957C4.90035 1.19507 7.36985 0.174072 9.99885 0.174072C12.6264 0.174072 15.0954 1.19557 16.9499 3.05007C20.7824 6.88307 20.7824 13.1201 16.9499 16.9531C15.0963 18.8051 12.6279 19.8256 9.99835 19.8256ZM9.99885 0.674072C7.50335 0.674072 5.15985 1.64357 3.39985 3.40307C1.64135 5.16157 0.672852 7.50457 0.672852 10.0006C0.672852 12.4966 1.64135 14.8406 3.39985 16.5991C5.15835 18.3576 7.50135 19.3256 9.99785 19.3256C12.4939 19.3256 14.8374 18.3571 16.5959 16.5991C20.2334 12.9611 20.2334 7.04157 16.5959 3.40307C14.8359 1.64307 12.4929 0.674072 9.99885 0.674072Z" fill="white"/>
<path d="M8.58291 17.8454C8.53824 17.8454 8.49107 17.8382 8.44141 17.8239C8.33068 17.7874 8.23691 17.7121 8.17744 17.6118C8.11797 17.5115 8.09682 17.3931 8.11791 17.2784L9.31691 11.1739L7.13141 10.5609C7.06247 10.5415 6.99885 10.5066 6.9453 10.4591C6.89176 10.4115 6.84969 10.3524 6.82227 10.2862C6.79484 10.2201 6.78276 10.1486 6.78694 10.0771C6.79112 10.0056 6.81145 9.93593 6.84641 9.87341L10.9669 2.39891C11.0234 2.30022 11.1129 2.22467 11.2197 2.1856C11.3264 2.14653 11.4436 2.14647 11.5504 2.18541C11.6567 2.22438 11.7453 2.30058 11.7997 2.39987C11.8542 2.49917 11.8707 2.61483 11.8464 2.72541L10.7734 8.03042L12.8494 8.52441C12.9944 8.56391 13.1084 8.65741 13.1684 8.78291C13.1993 8.84826 13.2148 8.91979 13.2139 8.99205C13.2129 9.06431 13.1955 9.13541 13.1629 9.19991L9.00841 17.5814C8.96911 17.6607 8.90845 17.7274 8.83327 17.774C8.75809 17.8207 8.67138 17.8454 8.58291 17.8454ZM11.3234 2.78741L7.28341 10.1159L9.67391 10.7549C9.79941 10.7899 9.87691 10.9159 9.85141 11.0439L8.64441 17.1874L12.7149 8.97591L10.4214 8.46092C10.3582 8.44598 10.3033 8.40706 10.2683 8.35237C10.2333 8.29769 10.221 8.23154 10.2339 8.16791L11.3234 2.78741Z" fill="white"/>
</g>
<defs>
<clipPath id="clip0_152_2090">
<rect width="20" height="20" fill="white"/>
</clipPath>
</defs>
</svg>
