<svg width="18" height="18" viewBox="0 0 18 18" fill="none" xmlns="http://www.w3.org/2000/svg">
<path d="M15.375 6.75H14.25V5.24999C14.25 2.35512 11.8949 0 9 0C6.10509 0 3.75001 2.35512 3.75001 5.24999V6.75H2.62501C2.57576 6.74997 2.52698 6.75965 2.48146 6.77848C2.43595 6.79731 2.3946 6.82494 2.35977 6.85977C2.32494 6.8946 2.29731 6.93595 2.27848 6.98146C2.25965 7.02698 2.24997 7.07576 2.25 7.12501V16.5C2.25 17.3273 2.92272 18 3.75001 18H14.25C15.0773 18 15.75 17.3273 15.75 16.5V7.12501C15.75 7.07576 15.7404 7.02698 15.7215 6.98146C15.7027 6.93595 15.6751 6.8946 15.6402 6.85977C15.6054 6.82494 15.5641 6.79731 15.5185 6.77848C15.473 6.75965 15.4242 6.74997 15.375 6.75ZM10.1228 14.5836C10.1286 14.636 10.1233 14.6891 10.1072 14.7393C10.0911 14.7895 10.0646 14.8358 10.0295 14.8751C9.99428 14.9144 9.95121 14.9458 9.90306 14.9674C9.85491 14.9889 9.80276 15 9.75002 15H8.25001C8.19727 15 8.14513 14.9889 8.09698 14.9674C8.04883 14.9458 8.00576 14.9144 7.97058 14.8751C7.9354 14.8358 7.9089 14.7895 7.89282 14.7393C7.87673 14.6891 7.87141 14.636 7.87721 14.5836L8.11378 12.4563C7.72963 12.1769 7.50002 11.7349 7.50002 11.25C7.50002 10.4227 8.17274 9.74999 9.00004 9.74999C9.82733 9.74999 10.5 10.4227 10.5 11.25C10.5 11.7349 10.2704 12.1769 9.88629 12.4563L10.1228 14.5836ZM12 6.75H6.00001V5.24999C6.00001 3.59582 7.34583 2.25 9 2.25C10.6542 2.25 12 3.59582 12 5.24999V6.75Z" fill="#909090"/>
</svg>
