<svg width="33" height="40" viewBox="0 0 33 40" fill="none" xmlns="http://www.w3.org/2000/svg">
<path d="M0.75 23.3039H5.34042C5.90392 23.3039 6.45975 23.4276 6.96383 23.6676L10.8777 25.5201C11.3818 25.7582 11.9376 25.882 12.503 25.882H14.5002C16.4322 25.882 18 27.3651 18 29.1951C18 29.2701 17.9482 29.3339 17.8735 29.3545L13.0032 30.6726C12.1294 30.9088 11.1975 30.8262 10.3812 30.4401L6.19717 28.4601" stroke="#FFB200" stroke-width="1.5" stroke-linecap="round" stroke-linejoin="round"/>
<path d="M18 27.9914L26.8033 25.3457C27.5696 25.1157 28.3907 25.1283 29.1493 25.3819C29.9079 25.6354 30.5653 26.1169 31.0276 26.7576C31.7348 27.7139 31.4473 29.0864 30.4162 29.6676L16.0124 37.7995C15.562 38.0544 15.0633 38.217 14.5466 38.2773C14.0299 38.3375 13.5061 38.2943 13.0071 38.1501L0.75 34.5914" stroke="#FFB200" stroke-width="1.5" stroke-linecap="round" stroke-linejoin="round"/>
<path d="M26.2991 5.49136C27.5498 7.64346 27.8797 10.1922 27.2166 12.5813C26.5536 14.9705 24.9515 17.0061 22.7599 18.2439C20.5683 19.4818 17.9652 19.8214 15.5186 19.1886C13.072 18.5558 10.9806 17.002 9.70072 14.8664M26.2991 5.49136C25.6744 4.41655 24.8386 3.47324 23.8397 2.71572C22.8409 1.95821 21.6987 1.40145 20.479 1.07751C19.2593 0.753571 17.9862 0.668842 16.7329 0.828204C15.4796 0.987566 14.2708 1.38787 13.1763 2.00607C12.0818 2.62427 11.1231 3.44816 10.3554 4.4303C9.58769 5.41244 9.02615 6.53343 8.7031 7.72873C8.38006 8.92404 8.3019 10.17 8.47311 11.395C8.64432 12.62 9.06153 13.7998 9.70072 14.8664M26.2991 5.49136L9.70072 14.8664" stroke="#FFB200" stroke-width="1.5"/>
</svg>
