<svg width="20" height="20" viewBox="0 0 20 20" fill="none" xmlns="http://www.w3.org/2000/svg">
<path d="M10.0001 10.6253C7.35846 10.6253 5.20846 8.47533 5.20846 5.83366C5.20846 3.19199 7.35846 1.04199 10.0001 1.04199C12.6418 1.04199 14.7918 3.19199 14.7918 5.83366C14.7918 8.47533 12.6418 10.6253 10.0001 10.6253ZM10.0001 2.29199C8.05013 2.29199 6.45846 3.88366 6.45846 5.83366C6.45846 7.78366 8.05013 9.37533 10.0001 9.37533C11.9501 9.37533 13.5418 7.78366 13.5418 5.83366C13.5418 3.88366 11.9501 2.29199 10.0001 2.29199ZM17.1585 18.9587C16.8168 18.9587 16.5335 18.6753 16.5335 18.3337C16.5335 15.4587 13.6001 13.1253 10.0001 13.1253C6.40013 13.1253 3.4668 15.4587 3.4668 18.3337C3.4668 18.6753 3.18346 18.9587 2.8418 18.9587C2.50013 18.9587 2.2168 18.6753 2.2168 18.3337C2.2168 14.7753 5.70846 11.8753 10.0001 11.8753C14.2918 11.8753 17.7835 14.7753 17.7835 18.3337C17.7835 18.6753 17.5001 18.9587 17.1585 18.9587Z" fill="white"/>
</svg>
