<svg width="22" height="22" viewBox="0 0 22 22" fill="none" xmlns="http://www.w3.org/2000/svg">
<g clip-path="url(#clip0_173_1036)">
<path d="M18.9984 7.82359H14.278V2.89524C14.278 2.18368 13.9999 1.51371 13.4956 1.00943C13.2486 0.760864 12.9548 0.563736 12.6311 0.429445C12.3074 0.295154 11.9603 0.226365 11.6098 0.227056H2.99924C1.52799 0.227056 0.331055 1.42399 0.331055 2.89524V8.63552C0.331055 10.1068 1.52799 11.3037 2.99924 11.3037H3.20102V12.9406C3.20012 13.1027 3.23127 13.2633 3.2927 13.4132C3.35412 13.5631 3.4446 13.6994 3.55893 13.8142C3.67325 13.929 3.80916 14.02 3.95882 14.0821C4.10848 14.1441 4.26894 14.176 4.43096 14.1757C4.75374 14.1757 5.06862 14.0475 5.29996 13.809L7.71996 11.402V16.2317C7.71996 17.7026 8.91827 18.8996 10.3909 18.8996H14.1794L16.6929 21.3997C16.8623 21.5752 17.0805 21.6959 17.3192 21.7462C17.5579 21.7965 17.8063 21.7741 18.0321 21.6819C18.2597 21.59 18.4544 21.4319 18.5912 21.2282C18.728 21.0244 18.8005 20.7843 18.7994 20.5389V18.8992H18.9984C20.4714 18.8992 21.6697 17.7026 21.6697 16.2314V10.4907C21.6697 9.02052 20.4714 7.82359 18.9984 7.82359ZM7.60584 10.2725C7.46952 10.2725 7.33875 10.3265 7.24215 10.4227L4.56605 13.0843C4.5404 13.1131 4.50628 13.133 4.4686 13.1412C4.43092 13.1493 4.39162 13.1453 4.35637 13.1297C4.31832 13.1154 4.2858 13.0894 4.26349 13.0554C4.24119 13.0214 4.23026 12.9812 4.23227 12.9406V10.7881C4.23227 10.6513 4.17795 10.5202 4.08125 10.4235C3.98455 10.3268 3.8534 10.2725 3.71665 10.2725H2.99924C2.56524 10.272 2.14914 10.0994 1.84226 9.79251C1.53537 9.48563 1.36276 9.06953 1.3623 8.63552V2.89524C1.36276 2.46124 1.53537 2.04514 1.84226 1.73826C2.14914 1.43137 2.56524 1.25876 2.99924 1.25831H11.6095C12.0461 1.25831 12.4565 1.42881 12.7662 1.73852C12.9188 1.88991 13.0398 2.07008 13.1222 2.26858C13.2047 2.46708 13.2469 2.67996 13.2464 2.8949V8.63518C13.2459 9.06922 13.0732 9.48531 12.7663 9.79219C12.4593 10.0991 12.0432 10.2717 11.6091 10.2721H7.60584V10.2725ZM20.6384 16.2317C20.6375 16.6661 20.4643 17.0823 20.1569 17.3892C19.8494 17.696 19.4328 17.8683 18.9984 17.8683H18.2837C18.147 17.8683 18.0158 17.9226 17.9191 18.0193C17.8224 18.116 17.7681 18.2472 17.7681 18.3839V20.5392C17.77 20.5795 17.759 20.6193 17.7369 20.653C17.7147 20.6866 17.6824 20.7124 17.6447 20.7266C17.599 20.7448 17.5124 20.7634 17.4268 20.6757L14.7558 18.0189C14.6592 17.9228 14.5285 17.8688 14.3921 17.8686H10.3909C9.95659 17.8686 9.54005 17.6962 9.23266 17.3894C8.92526 17.0826 8.75212 16.6664 8.75121 16.2321V11.3037H11.6091C13.0065 11.3037 14.1539 10.224 14.2663 8.85518H18.9981C19.9025 8.85518 20.6381 9.58909 20.6381 10.4914L20.6384 16.2317Z" fill="white"/>
<path d="M11.5024 12.6042C11.083 12.6042 10.7417 12.9459 10.7417 13.3649C10.7417 13.784 11.0834 14.1256 11.5024 14.1256C11.9221 14.1256 12.2638 13.784 12.2638 13.3649C12.2638 12.9459 11.9225 12.6042 11.5024 12.6042ZM14.6945 12.6042C14.2751 12.6042 13.9338 12.9459 13.9338 13.3649C13.9338 13.784 14.2754 14.1256 14.6945 14.1256C15.1142 14.1256 15.4559 13.784 15.4559 13.3649C15.4559 12.9459 15.1142 12.6042 14.6945 12.6042ZM17.8865 12.6042C17.4672 12.6042 17.1258 12.9459 17.1258 13.3649C17.1258 13.784 17.4675 14.1256 17.8865 14.1256C18.3063 14.1256 18.6479 13.784 18.6479 13.3649C18.6479 12.9459 18.3063 12.6042 17.8865 12.6042ZM7.13404 7.50295C6.83635 7.50295 6.59504 7.75114 6.59504 8.04917C6.59504 8.33998 6.82913 8.59539 7.13404 8.59539C7.43895 8.59539 7.68026 8.33998 7.68026 8.04917C7.68026 7.75114 7.43207 7.50295 7.13404 7.50295ZM7.23923 2.93555C6.14198 2.93555 5.6377 3.58592 5.6377 4.02489C5.6377 4.34183 5.90582 4.48827 6.12548 4.48827C6.56445 4.48827 6.3857 3.8623 7.21482 3.8623C7.62113 3.8623 7.94632 4.04105 7.94632 4.41505C7.94632 4.85402 7.4912 5.10598 7.22307 5.33355C6.98726 5.5367 6.67823 5.87014 6.67823 6.56933C6.67823 6.99214 6.79201 7.11383 7.12545 7.11383C7.52385 7.11383 7.60498 6.93508 7.60498 6.78039C7.60498 6.35758 7.61323 6.11386 8.0601 5.76427C8.27941 5.59342 8.97035 5.04067 8.97035 4.27652C8.9707 3.5127 8.27976 2.93555 7.23923 2.93555Z" fill="white"/>
</g>
<defs>
<clipPath id="clip0_173_1036">
<rect width="22" height="22" fill="white"/>
</clipPath>
</defs>
</svg>
