<svg width="18" height="17" viewBox="0 0 18 17" fill="none" xmlns="http://www.w3.org/2000/svg">
<path d="M5.33333 6.22917L4.875 6.6875C4.75 6.8125 4.69111 6.95834 4.69833 7.125C4.70556 7.29167 4.77139 7.4375 4.89583 7.5625C5.02028 7.6875 5.16611 7.75 5.33333 7.75C5.50056 7.75 5.64639 7.6875 5.77083 7.5625L6.5 6.83334C6.66667 6.66667 6.75 6.47223 6.75 6.25C6.75 6.02778 6.66667 5.83334 6.5 5.66667L5.75 4.91667C5.63889 4.80556 5.49306 4.75 5.3125 4.75C5.13194 4.75 4.98611 4.80556 4.875 4.91667C4.75 5.04167 4.6875 5.1875 4.6875 5.35417C4.6875 5.52084 4.75 5.66667 4.875 5.79167L5.33333 6.22917ZM15.8333 5.83334C15.375 5.83334 14.9828 5.67028 14.6567 5.34417C14.3306 5.01806 14.1672 4.62556 14.1667 4.16667C14.1667 3.66667 14.3194 3.17362 14.625 2.6875C14.9306 2.20139 15.2153 1.75695 15.4792 1.35417C15.5208 1.28473 15.5731 1.23612 15.6358 1.20834C15.6986 1.18056 15.7644 1.16667 15.8333 1.16667C15.9022 1.16667 15.9683 1.18056 16.0317 1.20834C16.095 1.23612 16.1469 1.28473 16.1875 1.35417C16.4514 1.75695 16.7361 2.20139 17.0417 2.6875C17.3472 3.17362 17.5 3.66667 17.5 4.16667C17.5 4.625 17.3369 5.0175 17.0108 5.34417C16.6847 5.67084 16.2922 5.83389 15.8333 5.83334ZM11.3542 6.22917L11.7917 5.79167C11.9167 5.66667 11.9792 5.52084 11.9792 5.35417C11.9792 5.1875 11.9167 5.04167 11.7917 4.91667C11.6667 4.79167 11.5208 4.72917 11.3542 4.72917C11.1875 4.72917 11.0417 4.79167 10.9167 4.91667L10.1667 5.66667C10 5.83334 9.91667 6.02778 9.91667 6.25C9.91667 6.47223 10 6.66667 10.1667 6.83334L10.9167 7.58334C11.0417 7.70834 11.1908 7.76723 11.3642 7.76C11.5375 7.75278 11.6869 7.68695 11.8125 7.5625C11.9381 7.43806 12.0006 7.28889 12 7.115C11.9994 6.94112 11.9369 6.79167 11.8125 6.66667L11.3542 6.22917ZM8.33333 16.6667C7.16667 16.6667 6.07639 16.4478 5.0625 16.01C4.04861 15.5722 3.16667 14.9786 2.41667 14.2292C1.66667 13.4797 1.07639 12.5978 0.645833 11.5833C0.215278 10.5689 0 9.48556 0 8.33334C0 7.18112 0.215278 6.09778 0.645833 5.08334C1.07639 4.06889 1.66667 3.18695 2.41667 2.4375C3.16667 1.68806 4.04861 1.09417 5.0625 0.655838C6.07639 0.217504 7.16667 -0.0011069 8.33333 4.21408e-06C9.20833 4.21408e-06 10.0417 0.125004 10.8333 0.375004C11.625 0.625004 12.3542 0.972226 13.0208 1.41667C13.2153 1.55556 13.3403 1.73973 13.3958 1.96917C13.4514 2.19862 13.4236 2.42417 13.3125 2.64584C13.2014 2.88195 13.1075 3.125 13.0308 3.375C12.9542 3.625 12.9161 3.88889 12.9167 4.16667C12.9167 4.95834 13.1842 5.62862 13.7192 6.1775C14.2542 6.72639 14.9103 7.02834 15.6875 7.08334C15.9236 7.11112 16.1356 7.19112 16.3233 7.32334C16.5111 7.45556 16.6186 7.63945 16.6458 7.875C16.6597 7.94445 16.6667 8.02084 16.6667 8.10417V8.33334C16.6667 9.48612 16.4478 10.5694 16.01 11.5833C15.5722 12.5972 14.9786 13.4792 14.2292 14.2292C13.4797 14.9792 12.5978 15.5731 11.5833 16.0108C10.5689 16.4486 9.48556 16.6672 8.33333 16.6667ZM5.10417 12.5C5.20139 12.5 5.30222 12.4722 5.40667 12.4167C5.51111 12.3611 5.59083 12.2917 5.64583 12.2083C5.95139 11.7917 6.33333 11.4583 6.79167 11.2083C7.25 10.9583 7.76389 10.8333 8.33333 10.8333C8.90278 10.8333 9.41667 10.9583 9.875 11.2083C10.3333 11.4583 10.7153 11.7917 11.0208 12.2083C11.0764 12.2917 11.1528 12.3611 11.25 12.4167C11.3472 12.4722 11.4444 12.5 11.5417 12.5C11.7917 12.5 11.9758 12.3889 12.0942 12.1667C12.2125 11.9444 12.1881 11.7083 12.0208 11.4583C11.6597 10.9167 11.1528 10.4689 10.5 10.115C9.84722 9.76112 9.125 9.58389 8.33333 9.58334C7.97222 9.58334 7.61806 9.62167 7.27083 9.69834C6.92361 9.775 6.59722 9.88945 6.29167 10.0417L3.33333 8.33334C3.33333 8.11112 3.27778 7.90278 3.16667 7.70834C3.05556 7.51389 2.90278 7.36112 2.70833 7.25C2.40278 7.08334 2.08694 7.04528 1.76083 7.13584C1.43472 7.22639 1.18111 7.41723 1 7.70834C0.833333 8.01389 0.795278 8.33 0.885833 8.65667C0.976389 8.98334 1.16722 9.23667 1.45833 9.41667C1.65278 9.52778 1.86111 9.58334 2.08333 9.58334C2.30556 9.58334 2.51389 9.52778 2.70833 9.41667L5.16667 10.8333C5.05556 10.9444 4.95833 11.0556 4.875 11.1667L4.625 11.5C4.47222 11.7361 4.455 11.9619 4.57333 12.1775C4.69167 12.3931 4.86861 12.5006 5.10417 12.5Z" fill="white"/>
</svg>
