<svg width="18" height="18" viewBox="0 0 18 18" fill="none" xmlns="http://www.w3.org/2000/svg">
<path d="M10.2656 0L8.04688 1.32031L8.35156 1.83477L9.72656 1.01641L9.32812 3.57148L9.57422 3.98555L11.875 2.61562L11.5703 2.10117L10.1133 2.96602L10.5078 0.412109L10.2656 0ZM4.49609 1.32734C3.13497 2.08458 2.00064 3.19142 1.21025 4.53357C0.419862 5.87572 0.00206421 7.40452 0 8.96211C0 11.2828 0.921872 13.5083 2.56282 15.1493C4.20376 16.7902 6.42936 17.7121 8.75 17.7121C10.6419 17.7111 12.4825 17.097 13.996 15.9617C15.5094 14.8265 16.6141 13.2313 17.1445 11.4152C16.3866 12.218 15.473 12.8578 14.4595 13.2957C13.4461 13.7336 12.354 13.9603 11.25 13.9621C9.09512 13.9621 7.02849 13.1061 5.50476 11.5824C3.98102 10.0586 3.125 7.99199 3.125 5.83711C3.12637 4.2314 3.60348 2.66209 4.49609 1.32734ZM14.0469 3.36055L13.7773 4.00508L15.5 4.72383L12.832 6.12617L12.6172 6.6418L15.4961 7.84492L15.7656 7.20039L13.9414 6.43867L16.6094 5.03633L16.8242 4.5207L14.0469 3.36055ZM9.55469 5.86055L5.73438 7.22773L6.05078 8.11445L8.41797 7.2668L7.03516 11.091L7.28906 11.798L11.25 10.384L10.9336 9.49727L8.42578 10.3957L9.80859 6.57148L9.55469 5.86055Z" fill="white"/>
</svg>
