<svg width="45" height="45" viewBox="0 0 45 45" fill="none" xmlns="http://www.w3.org/2000/svg">
<g clip-path="url(#clip0_301_1723)">
<path d="M43.681 42.3632H42.2748V16.348C42.2748 15.6199 41.6845 15.0296 40.9565 15.0296H35.6831C34.955 15.0296 34.3648 15.6199 34.3648 16.348V42.3632H31.7281V25.1369C31.7281 24.4088 31.1378 23.8186 30.4097 23.8186H25.1364C24.4083 23.8186 23.818 24.4088 23.818 25.1369V42.3632H21.1814V29.9708C21.1814 29.2427 20.5911 28.6525 19.863 28.6525H14.5896C13.8616 28.6525 13.2713 29.2427 13.2713 29.9708V42.3632H10.6346V33.1348C10.6346 32.4068 10.0444 31.8165 9.31628 31.8165H4.04291C3.31484 31.8165 2.72457 32.4068 2.72457 33.1348V42.3632H1.31834C0.590265 42.3632 0 42.9535 0 43.6816C0 44.4096 0.590265 44.9999 1.31834 44.9999H43.681C44.4091 44.9999 44.9994 44.4096 44.9994 43.6816C44.9994 42.9535 44.4091 42.3632 43.681 42.3632Z" fill="#FFB200"/>
<path d="M1.31834 28.3275C9.54637 28.3275 18.4691 25.3725 26.4429 20.0068C32.6879 15.8043 37.8937 10.4358 41.1273 4.93857L42.4077 9.71685C42.5656 10.3059 43.3276 10.8148 44.0223 10.649C44.7305 10.4801 45.1429 9.73768 44.9545 9.03439L42.7956 0.977565C42.6071 0.274362 41.8846 -0.143113 41.181 0.0454101L33.1242 2.20424C32.4209 2.39267 32.0036 3.11556 32.1921 3.81885C32.3806 4.52215 33.1031 4.93962 33.8067 4.75101L38.997 3.36025C35.9802 8.6025 30.9944 13.7658 24.9709 17.8192C17.4275 22.8953 9.02756 25.6908 1.31834 25.6908C0.590265 25.6908 0 26.2811 0 27.0092C0 27.7373 0.590265 28.3275 1.31834 28.3275Z" fill="#FFB200"/>
</g>
<defs>
<clipPath id="clip0_301_1723">
<rect width="45" height="45" fill="white"/>
</clipPath>
</defs>
</svg>
