<svg width="36" height="45" viewBox="0 0 36 45" fill="none" xmlns="http://www.w3.org/2000/svg">
<path d="M6.3125 4.1875C6.3125 2.4271 7.73954 1 9.5 1H26.5C28.2605 1 29.6875 2.4271 29.6875 4.1875C29.6875 5.9479 28.2605 7.375 26.5 7.375H9.5C7.73954 7.375 6.3125 5.9479 6.3125 4.1875Z" fill="#2F88FF" stroke="#FF6D00" stroke-width="2" stroke-linejoin="round"/>
<path d="M6.41801 14.9409C7.0231 14.188 7.93685 13.75 8.90277 13.75H27.0972C28.0631 13.75 28.9769 14.188 29.582 14.9409L34.2972 20.8087C34.752 21.3748 35 22.0791 35 22.8054V40.3125C35 42.073 33.573 43.5 31.8125 43.5H4.1875C2.4271 43.5 1 42.073 1 40.3125V22.8054C1 22.0791 1.24796 21.3748 1.70281 20.8087L6.41801 14.9409Z" fill="#2F88FF" stroke="#FF6D00" stroke-width="2" stroke-linejoin="round"/>
<path d="M11.625 28.625H24.375" stroke="white" stroke-width="2" stroke-linecap="round" stroke-linejoin="round"/>
<path d="M18 22.25V35" stroke="white" stroke-width="2" stroke-linecap="round" stroke-linejoin="round"/>
</svg>
