<svg width="45" height="45" viewBox="0 0 45 45" fill="none" xmlns="http://www.w3.org/2000/svg">
<g clip-path="url(#clip0_301_1712)">
<path fill-rule="evenodd" clip-rule="evenodd" d="M22.5 42.75C33.6838 42.75 42.75 33.684 42.75 22.5C42.75 11.3162 33.684 2.24995 22.5 2.24995C11.3162 2.24995 2.24995 11.3162 2.24995 22.5C2.24995 33.6838 11.3162 42.75 22.5 42.75ZM22.5 45C34.9263 45 45 34.9263 45 22.5C45 10.0735 34.9263 0 22.5 0C10.0735 0 0 10.0735 0 22.5C0 34.9263 10.0735 45 22.5 45Z" fill="#FF6D00"/>
<path fill-rule="evenodd" clip-rule="evenodd" d="M31.5001 22.5007C31.5 22.7991 31.3815 23.0852 31.1705 23.2961C30.9596 23.5071 30.6735 23.6256 30.3751 23.6257H14.625C14.3266 23.6257 14.0405 23.5072 13.8295 23.2962C13.6185 23.0852 13.5 22.7991 13.5 22.5007C13.5 22.2023 13.6185 21.9162 13.8295 21.7052C14.0405 21.4943 14.3266 21.3757 14.625 21.3757H30.3749C30.6732 21.3758 30.9594 21.4943 31.1704 21.7053C31.3814 21.9162 31.5 22.2023 31.5001 22.5007Z" fill="#FF6D00"/>
<path fill-rule="evenodd" clip-rule="evenodd" d="M22.5 31.5001C22.2016 31.5 21.9155 31.3814 21.7046 31.1705C21.4936 30.9595 21.3751 30.6734 21.375 30.3751V14.6249C21.375 14.3266 21.4935 14.0404 21.7045 13.8295C21.9155 13.6185 22.2016 13.5 22.5 13.5C22.7983 13.5 23.0845 13.6185 23.2955 13.8295C23.5064 14.0404 23.625 14.3266 23.625 14.6249V30.3748C23.6249 30.6732 23.5064 30.9593 23.2954 31.1703C23.0844 31.3813 22.7983 31.4999 22.5 31.5001Z" fill="#FF6D00"/>
</g>
<defs>
<clipPath id="clip0_301_1712">
<rect width="45" height="45" fill="white"/>
</clipPath>
</defs>
</svg>
