<svg width="45" height="45" viewBox="0 0 45 45" fill="none" xmlns="http://www.w3.org/2000/svg">
<g clip-path="url(#clip0_340_3679)">
<path d="M33.9258 20.2148C34.8966 20.2148 35.6836 19.4278 35.6836 18.457C35.6836 17.4862 34.8966 16.6992 33.9258 16.6992C32.955 16.6992 32.168 17.4862 32.168 18.457C32.168 19.4278 32.955 20.2148 33.9258 20.2148Z" fill="#1D89E4"/>
<path d="M37.9688 3.51562H35.6836V1.75781C35.6836 0.786973 34.8966 0 33.9258 0C32.9549 0 32.168 0.786973 32.168 1.75781V3.51562H24.1699V1.75781C24.1699 0.786973 23.3829 0 22.4121 0C21.4413 0 20.6543 0.786973 20.6543 1.75781V3.51562H12.7441V1.75781C12.7441 0.786973 11.9572 0 10.9863 0C10.0155 0 9.22852 0.786973 9.22852 1.75781V3.51562H7.03125C3.15422 3.51562 0 6.66984 0 10.5469V37.9688C0 41.8458 3.15422 45 7.03125 45H20.4785C21.4494 45 22.2363 44.213 22.2363 43.2422C22.2363 42.2713 21.4494 41.4844 20.4785 41.4844H7.03125C5.09273 41.4844 3.51562 39.9073 3.51562 37.9688V10.5469C3.51562 8.60836 5.09273 7.03125 7.03125 7.03125H9.22852V8.78906C9.22852 9.7599 10.0155 10.5469 10.9863 10.5469C11.9572 10.5469 12.7441 9.7599 12.7441 8.78906V7.03125H20.6543V8.78906C20.6543 9.7599 21.4413 10.5469 22.4121 10.5469C23.3829 10.5469 24.1699 9.7599 24.1699 8.78906V7.03125H32.168V8.78906C32.168 9.7599 32.9549 10.5469 33.9258 10.5469C34.8966 10.5469 35.6836 9.7599 35.6836 8.78906V7.03125H37.9688C39.9073 7.03125 41.4844 8.60836 41.4844 10.5469V20.5664C41.4844 21.5372 42.2713 22.3242 43.2422 22.3242C44.213 22.3242 45 21.5372 45 20.5664V10.5469C45 6.66984 41.8458 3.51562 37.9688 3.51562Z" fill="#1D89E4"/>
<path d="M34.3652 23.7305C28.5012 23.7305 23.7305 28.5012 23.7305 34.3652C23.7305 40.2293 28.5012 45 34.3652 45C40.2293 45 45 40.2293 45 34.3652C45 28.5012 40.2293 23.7305 34.3652 23.7305ZM34.3652 41.4844C30.4398 41.4844 27.2461 38.2908 27.2461 34.3652C27.2461 30.4397 30.4398 27.2461 34.3652 27.2461C38.2907 27.2461 41.4844 30.4397 41.4844 34.3652C41.4844 38.2908 38.2907 41.4844 34.3652 41.4844Z" fill="#1D89E4"/>
<path d="M36.9141 32.6074H36.123V30.7617C36.123 29.7909 35.3361 29.0039 34.3652 29.0039C33.3944 29.0039 32.6074 29.7909 32.6074 30.7617V34.3652C32.6074 35.3361 33.3944 36.123 34.3652 36.123H36.9141C37.8849 36.123 38.6719 35.3361 38.6719 34.3652C38.6719 33.3944 37.8849 32.6074 36.9141 32.6074Z" fill="#1D89E4"/>
<path d="M26.2793 20.2148C27.2501 20.2148 28.0371 19.4278 28.0371 18.457C28.0371 17.4862 27.2501 16.6992 26.2793 16.6992C25.3085 16.6992 24.5215 17.4862 24.5215 18.457C24.5215 19.4278 25.3085 20.2148 26.2793 20.2148Z" fill="#1D89E4"/>
<path d="M18.6328 27.8613C19.6036 27.8613 20.3906 27.0743 20.3906 26.1035C20.3906 25.1327 19.6036 24.3457 18.6328 24.3457C17.662 24.3457 16.875 25.1327 16.875 26.1035C16.875 27.0743 17.662 27.8613 18.6328 27.8613Z" fill="#1D89E4"/>
<path d="M10.9863 20.2148C11.9571 20.2148 12.7441 19.4278 12.7441 18.457C12.7441 17.4862 11.9571 16.6992 10.9863 16.6992C10.0155 16.6992 9.22852 17.4862 9.22852 18.457C9.22852 19.4278 10.0155 20.2148 10.9863 20.2148Z" fill="#1D89E4"/>
<path d="M10.9863 27.8613C11.9571 27.8613 12.7441 27.0743 12.7441 26.1035C12.7441 25.1327 11.9571 24.3457 10.9863 24.3457C10.0155 24.3457 9.22852 25.1327 9.22852 26.1035C9.22852 27.0743 10.0155 27.8613 10.9863 27.8613Z" fill="#1D89E4"/>
<path d="M10.9863 35.5078C11.9571 35.5078 12.7441 34.7208 12.7441 33.75C12.7441 32.7792 11.9571 31.9922 10.9863 31.9922C10.0155 31.9922 9.22852 32.7792 9.22852 33.75C9.22852 34.7208 10.0155 35.5078 10.9863 35.5078Z" fill="#1D89E4"/>
<path d="M18.6328 35.5078C19.6036 35.5078 20.3906 34.7208 20.3906 33.75C20.3906 32.7792 19.6036 31.9922 18.6328 31.9922C17.662 31.9922 16.875 32.7792 16.875 33.75C16.875 34.7208 17.662 35.5078 18.6328 35.5078Z" fill="#1D89E4"/>
<path d="M18.6328 20.2148C19.6036 20.2148 20.3906 19.4278 20.3906 18.457C20.3906 17.4862 19.6036 16.6992 18.6328 16.6992C17.662 16.6992 16.875 17.4862 16.875 18.457C16.875 19.4278 17.662 20.2148 18.6328 20.2148Z" fill="#1D89E4"/>
</g>
<defs>
<clipPath id="clip0_340_3679">
<rect width="45" height="45" fill="white"/>
</clipPath>
</defs>
</svg>
