<svg width="45" height="45" viewBox="0 0 45 45" fill="none" xmlns="http://www.w3.org/2000/svg">
<path d="M29.0624 25.3123C29.0624 29.0623 24.3749 31.8748 24.3749 34.6873H20.6249C20.6249 31.8748 15.9374 29.0623 15.9374 25.3123C15.9374 21.6935 18.8812 18.7498 22.4999 18.7498C26.1187 18.7498 29.0624 21.6935 29.0624 25.3123ZM24.3749 36.5623H20.6249V37.4998C20.6249 38.531 21.4687 39.3748 22.4999 39.3748C23.5312 39.3748 24.3749 38.531 24.3749 37.4998V36.5623ZM35.6249 24.3748C35.6249 26.981 34.8562 29.4185 33.5249 31.4623C33.2986 31.8222 33.2013 32.2483 33.249 32.6707C33.2967 33.0932 33.4866 33.4869 33.7874 33.7873C34.6124 34.6123 36.0374 34.4998 36.6749 33.506C38.4427 30.7891 39.3809 27.6161 39.3749 24.3748C39.3749 19.9498 37.6687 15.9185 34.8749 12.8998C34.1437 12.1123 32.9062 12.0935 32.1562 12.8435C31.4437 13.556 31.4437 14.6998 32.1187 15.4498C34.3761 17.873 35.6293 21.063 35.6249 24.3748ZM29.3437 8.71852L24.1124 3.48727C23.982 3.3533 23.8146 3.2613 23.6316 3.22302C23.4486 3.18475 23.2584 3.20195 23.0852 3.27242C22.9121 3.3429 22.7639 3.46344 22.6596 3.61862C22.5553 3.7738 22.4997 3.95656 22.4999 4.14352V7.49977C19.4673 7.50048 16.4909 8.31844 13.8837 9.8676C11.2766 11.4168 9.13511 13.6399 7.68453 16.3031C6.23394 18.9664 5.52787 21.9713 5.64056 25.0019C5.75326 28.0324 6.68056 30.9766 8.32494 33.5248C8.96244 34.5185 10.3874 34.631 11.2124 33.806C11.8312 33.1873 11.9437 32.231 11.4749 31.4998C8.86869 27.4685 8.39994 21.9373 11.7187 16.4998C13.9687 12.8435 18.2062 10.8935 22.4999 11.2498V14.606C22.4999 15.4498 23.5124 15.8623 24.0937 15.2623L29.3249 10.031C29.6999 9.67477 29.6999 9.07477 29.3437 8.71852Z" fill="#FF6D00"/>
</svg>
