<svg width="15" height="17" viewBox="0 0 15 17" fill="none" xmlns="http://www.w3.org/2000/svg">
<path d="M10.4149 9.82629C10.4149 11.493 8.33157 12.743 8.33157 13.993H6.6649C6.6649 12.743 4.58157 11.493 4.58157 9.82629C4.58157 8.21795 5.8899 6.90962 7.49824 6.90962C9.10657 6.90962 10.4149 8.21795 10.4149 9.82629ZM8.33157 14.8263H6.6649V15.243C6.6649 15.7013 7.0399 16.0763 7.49824 16.0763C7.95657 16.0763 8.33157 15.7013 8.33157 15.243V14.8263ZM13.3316 9.40962C13.3316 10.568 12.9899 11.6513 12.3982 12.5596C12.2977 12.7196 12.2544 12.909 12.2756 13.0967C12.2968 13.2845 12.3812 13.4595 12.5149 13.593C12.8816 13.9596 13.5149 13.9096 13.7982 13.468C14.5839 12.2604 15.0009 10.8502 14.9982 9.40962C14.9982 7.44295 14.2399 5.65129 12.9982 4.30962C12.6732 3.95962 12.1232 3.95129 11.7899 4.28462C11.4732 4.60129 11.4732 5.10962 11.7732 5.44295C12.7765 6.51996 13.3335 7.93771 13.3316 9.40962ZM10.5399 2.45129L8.2149 0.126286C8.15695 0.0667459 8.08254 0.0258536 8.00121 0.00884288C7.91988 -0.00816786 7.83532 -0.00052322 7.75836 0.0307984C7.6814 0.0621201 7.61553 0.115694 7.56919 0.184664C7.52285 0.253634 7.49815 0.334862 7.49824 0.417953V1.90962C6.15039 1.90994 4.82753 2.27347 3.66881 2.96199C2.51008 3.65051 1.55831 4.63856 0.913609 5.82222C0.268906 7.00588 -0.0449059 8.34141 0.00518134 9.68833C0.0552686 11.0352 0.467404 12.3438 1.19824 13.4763C1.48157 13.918 2.1149 13.968 2.48157 13.6013C2.75657 13.3263 2.80657 12.9013 2.59824 12.5763C1.4399 10.7846 1.23157 8.32629 2.70657 5.90962C3.70657 4.28462 5.5899 3.41795 7.49824 3.57629V5.06795C7.49824 5.44295 7.94824 5.62629 8.20657 5.35962L10.5316 3.03462C10.6982 2.87629 10.6982 2.60962 10.5399 2.45129Z" fill="white"/>
</svg>
