<svg width="118" height="113" viewBox="0 0 118 113" fill="none" xmlns="http://www.w3.org/2000/svg">
<path d="M49.541 0.429506C51.422 1.31467 53.2849 2.24029 55.1192 3.21857C58.9441 3.82373 61.7347 3.65698 65.1714 1.82404C69.5482 -0.235632 73.6077 -0.314355 78.3614 0.429506C83.0927 2.61545 85.4546 7.09366 87.6582 11.5858C87.6582 12.1993 87.6582 12.8129 87.6582 13.4451C90.7332 14.8801 93.6337 15.5628 96.9551 16.118C100.977 16.9069 103.481 17.6921 106.252 20.8826C108.674 24.9865 109.22 28.3246 108.576 33.0267C107.962 37.5397 108.55 40.106 110.9 44.1248C112.296 45.9009 113.736 47.594 115.266 49.2563C117.654 51.9662 117.721 54.4329 117.67 57.9902C117.169 61.7005 114.877 64.1893 112.44 66.8949C109.527 70.1635 108.287 72.2699 108.111 76.6639C108.399 78.4471 108.399 78.4471 108.692 80.2664C109.318 84.561 108.368 87.7837 106.252 91.5389C102.772 95.6928 98.0824 96.3414 92.9967 97.4765C90.3822 98.016 90.3822 98.016 87.6582 98.9764C87.0009 100.51 86.3886 102.064 85.7989 103.625C83.684 107.15 81.8861 109.842 78.3614 111.992C72.3182 112.923 67.9064 112.056 62.5567 109.203C58.7318 108.598 55.9412 108.765 52.5044 110.597C48.1276 112.657 44.0681 112.736 39.3145 111.992C34.5831 109.806 32.2213 105.328 30.0176 100.836C30.0176 100.222 30.0176 99.6086 30.0176 98.9764C26.9427 97.5414 24.0422 96.8588 20.7207 96.3035C16.6985 95.5146 14.1946 94.7294 11.4239 91.5389C8.65595 86.752 8.56215 83.0306 9.35749 77.6735C9.89234 72.6627 7.31465 69.5075 4.3931 65.7401C3.52844 64.683 3.52844 64.683 2.64631 63.6047C0.234993 60.583 -0.0498731 58.3102 0.00613965 54.4313C0.506395 50.7211 2.79917 48.2322 5.23563 45.5266C8.14854 42.2581 9.38873 40.1517 9.56449 35.7576C9.37274 34.5688 9.18099 33.38 8.98343 32.1551C8.35818 27.8606 9.30791 24.6378 11.4239 20.8826C14.9042 16.7287 19.5934 16.0801 24.6792 14.945C27.2937 14.4056 27.2937 14.4056 30.0176 13.4451C30.675 11.9112 31.2872 10.3578 31.877 8.79669C36.6308 0.873736 40.5012 -0.599853 49.541 0.429506Z" fill="url(#paint0_linear_152_1592)"/>
<path d="M49.541 0.429506C51.422 1.31467 53.2849 2.24029 55.1192 3.21857C58.9441 3.82373 61.7347 3.65698 65.1714 1.82404C69.5482 -0.235632 73.6077 -0.314355 78.3614 0.429506C83.0927 2.61545 85.4546 7.09366 87.6582 11.5858C87.6582 12.1993 87.6582 12.8129 87.6582 13.4451C90.7332 14.8801 93.6337 15.5628 96.9551 16.118C100.977 16.9069 103.481 17.6921 106.252 20.8826C108.674 24.9865 109.22 28.3246 108.576 33.0267C107.962 37.5397 108.55 40.106 110.9 44.1248C112.296 45.9009 113.736 47.594 115.266 49.2563C117.654 51.9662 117.721 54.4329 117.67 57.9902C117.169 61.7005 114.877 64.1893 112.44 66.8949C109.527 70.1635 108.287 72.2699 108.111 76.6639C108.399 78.4471 108.399 78.4471 108.692 80.2664C109.318 84.561 108.368 87.7837 106.252 91.5389C102.772 95.6928 98.0824 96.3414 92.9967 97.4765C90.3822 98.016 90.3822 98.016 87.6582 98.9764C87.0009 100.51 86.3886 102.064 85.7989 103.625C83.684 107.15 81.8861 109.842 78.3614 111.992C72.3182 112.923 67.9064 112.056 62.5567 109.203C58.7318 108.598 55.9412 108.765 52.5044 110.597C48.1276 112.657 44.0681 112.736 39.3145 111.992C34.5831 109.806 32.2213 105.328 30.0176 100.836C30.0176 100.222 30.0176 99.6086 30.0176 98.9764C26.9427 97.5414 24.0422 96.8588 20.7207 96.3035C16.6985 95.5146 14.1946 94.7294 11.4239 91.5389C8.65595 86.752 8.56215 83.0306 9.35749 77.6735C9.89234 72.6627 7.31465 69.5075 4.3931 65.7401C3.52844 64.683 3.52844 64.683 2.64631 63.6047C0.234993 60.583 -0.0498731 58.3102 0.00613965 54.4313C0.506395 50.7211 2.79917 48.2322 5.23563 45.5266C8.14854 42.2581 9.38873 40.1517 9.56449 35.7576C9.37274 34.5688 9.18099 33.38 8.98343 32.1551C8.35818 27.8606 9.30791 24.6378 11.4239 20.8826C14.9042 16.7287 19.5934 16.0801 24.6792 14.945C27.2937 14.4056 27.2937 14.4056 30.0176 13.4451C30.675 11.9112 31.2872 10.3578 31.877 8.79669C36.6308 0.873736 40.5012 -0.599853 49.541 0.429506Z" fill="url(#paint1_linear_152_1592)"/>
<defs>
<linearGradient id="paint0_linear_152_1592" x1="58.8397" y1="0" x2="58.8397" y2="112.422" gradientUnits="userSpaceOnUse">
<stop stop-color="#3D60FB"/>
<stop offset="1" stop-color="#141FFF"/>
</linearGradient>
<linearGradient id="paint1_linear_152_1592" x1="0" y1="56.2108" x2="117.679" y2="56.2108" gradientUnits="userSpaceOnUse">
<stop stop-color="#AE00FF"/>
<stop offset="1" stop-color="#5B77FC"/>
</linearGradient>
</defs>
</svg>
