<svg width="24" height="24" viewBox="0 0 24 24" fill="none" xmlns="http://www.w3.org/2000/svg">
<path d="M16.211 11.1061L9.737 7.86807C9.55398 7.77649 9.35058 7.73323 9.14614 7.74242C8.94169 7.75161 8.74299 7.81293 8.56892 7.92056C8.39485 8.02818 8.2512 8.17854 8.15163 8.35733C8.05205 8.53613 7.99985 8.73742 8 8.94207V15.0581C7.99985 15.2627 8.05205 15.464 8.15163 15.6428C8.2512 15.8216 8.39485 15.972 8.56892 16.0796C8.74299 16.1872 8.94169 16.2485 9.14614 16.2577C9.35058 16.2669 9.55398 16.2237 9.737 16.1321L16.211 12.8941C16.3769 12.8109 16.5164 12.6833 16.6138 12.5254C16.7113 12.3675 16.7629 12.1856 16.7629 12.0001C16.7629 11.8145 16.7113 11.6326 16.6138 11.4747C16.5164 11.3169 16.3769 11.1892 16.211 11.1061Z" stroke="white" stroke-width="2" stroke-linecap="round" stroke-linejoin="round"/>
<path d="M12 21C16.9706 21 21 16.9706 21 12C21 7.02944 16.9706 3 12 3C7.02944 3 3 7.02944 3 12C3 16.9706 7.02944 21 12 21Z" stroke="white" stroke-width="2"/>
</svg>
