<svg width="17" height="17" viewBox="0 0 17 17" fill="none" xmlns="http://www.w3.org/2000/svg">
<path d="M1.09922 0L0 1.04883V15.7539L1.02031 16.7969H15.7539L16.7969 15.7539V1.04414L15.7539 0H1.09922ZM8.04688 1.21367V2.77344H8.75V1.21367C9.73828 1.22539 10.7227 1.28516 11.6641 1.39453L11.1836 3.3125L11.8633 3.48438L12.3633 1.48633C13.4258 1.64141 14.4141 1.86211 15.2734 2.14844L13.3984 6.52344C12.3789 6.26953 10.9414 6.11719 9.43359 6.07031C9.59375 6.28516 9.6875 6.55078 9.6875 6.83594C9.6875 7.54297 9.10547 8.125 8.39844 8.125C7.69141 8.125 7.10938 7.54297 7.10938 6.83594C7.10938 6.55078 7.20312 6.28516 7.36328 6.07031C5.85156 6.11719 4.41797 6.26953 3.39844 6.52344L1.52344 2.14844C2.38281 1.86211 3.37109 1.64141 4.43359 1.48633L4.93359 3.48438L5.61328 3.3125L5.13281 1.39453C6.07422 1.28516 7.05859 1.22539 8.04688 1.21367ZM6.84766 2.01016L6.19922 2.28672L7.6875 5.76172C7.88672 5.63281 8.11719 5.55469 8.36719 5.54688L6.84766 2.01016ZM8.39844 6.25C8.07031 6.25 7.8125 6.50781 7.8125 6.83594C7.8125 7.16406 8.07031 7.42188 8.39844 7.42188C8.72656 7.42188 8.98438 7.16406 8.98438 6.83594C8.98438 6.50781 8.72656 6.25 8.39844 6.25ZM3.39844 12.4219H13.3984V13.125H3.39844V12.4219ZM3.39844 14.2969H13.3984V15H3.39844V14.2969Z" fill="white"/>
</svg>
