<svg width="20" height="20" viewBox="0 0 20 20" fill="none" xmlns="http://www.w3.org/2000/svg">
<path d="M8.01025 2.65419C6.684 2.65419 4.65067 3.4196 5.35775 8.1596C5.36886 8.23127 5.38206 8.30863 5.39734 8.39169C5.5265 9.1046 5.72567 10.2084 4.45817 11.1184C5.32025 11.8259 6.54817 12.5329 8.04025 12.8392C7.98121 13.1776 7.90725 13.5132 7.81859 13.845C7.69734 14.29 7.44317 14.6054 6.989 14.74C6.589 14.8584 6.16984 14.9542 5.74067 15.0525C5.63011 15.0775 5.519 15.1031 5.40734 15.1292C4.87192 15.2538 4.32609 15.3917 3.84234 15.5867C3.35734 15.7825 2.9065 16.0463 2.58067 16.4396C2.249 16.8409 2.0715 17.3467 2.08359 17.9792C2.08775 18.1759 2.25609 18.3334 2.46275 18.3334H17.5369C17.7436 18.3334 17.9119 18.1759 17.9161 17.9792C17.9282 17.3467 17.7511 16.8409 17.419 16.4396C17.0936 16.0463 16.6423 15.7821 16.1578 15.5867C15.6736 15.3913 15.1278 15.2534 14.5919 15.1288L14.2594 15.0525C13.8298 14.9542 13.4107 14.8584 13.0107 14.74C12.5565 14.6054 12.3023 14.29 12.1811 13.845C12.0752 13.4499 11.9909 13.0493 11.9286 12.645C13.0694 12.3017 14.2819 11.6846 15.5415 10.6992L15.5357 10.6934C14.9444 10.1275 13.8361 9.06669 13.7573 6.54835C13.7573 3.08085 11.5465 0.0333542 8.01025 2.65419Z" stroke="white" stroke-width="2" stroke-linejoin="round"/>
</svg>
